<?xml version="1.0" encoding="utf-8" standalone="no"?>
<!DOCTYPE svg PUBLIC "-//W3C//DTD SVG 1.1//EN"
  "http://www.w3.org/Graphics/SVG/1.1/DTD/svg11.dtd">
<!-- Created with matplotlib (https://matplotlib.org/) -->
<svg height="720pt" version="1.1" viewBox="0 0 1152 720" width="1152pt" xmlns="http://www.w3.org/2000/svg" xmlns:xlink="http://www.w3.org/1999/xlink">
 <defs>
  <style type="text/css">
*{stroke-linecap:butt;stroke-linejoin:round;}
  </style>
 </defs>
 <g id="figure_1">
  <g id="patch_1">
   <path d="M 0 720 
L 1152 720 
L 1152 0 
L 0 0 
z
" style="fill:#ffffff;"/>
  </g>
  <g id="axes_1">
   <g id="patch_2">
    <path d="M 144 630 
L 549.818182 630 
L 549.818182 86.4 
L 144 86.4 
z
" style="fill:#ffffff;"/>
   </g>
   <g id="matplotlib.axis_1">
    <g id="xtick_1">
     <g id="line2d_1">
      <defs>
       <path d="M 0 0 
L 0 3.5 
" id="mbffd8df4ff" style="stroke:#000000;stroke-width:0.8;"/>
      </defs>
      <g>
       <use style="stroke:#000000;stroke-width:0.8;" x="154.917187" xlink:href="#mbffd8df4ff" y="630"/>
      </g>
     </g>
     <g id="text_1">
      <!-- 0 -->
      <defs>
       <path d="M 31.78125 66.40625 
Q 24.171875 66.40625 20.328125 58.90625 
Q 16.5 51.421875 16.5 36.375 
Q 16.5 21.390625 20.328125 13.890625 
Q 24.171875 6.390625 31.78125 6.390625 
Q 39.453125 6.390625 43.28125 13.890625 
Q 47.125 21.390625 47.125 36.375 
Q 47.125 51.421875 43.28125 58.90625 
Q 39.453125 66.40625 31.78125 66.40625 
z
M 31.78125 74.21875 
Q 44.046875 74.21875 50.515625 64.515625 
Q 56.984375 54.828125 56.984375 36.375 
Q 56.984375 17.96875 50.515625 8.265625 
Q 44.046875 -1.421875 31.78125 -1.421875 
Q 19.53125 -1.421875 13.0625 8.265625 
Q 6.59375 17.96875 6.59375 36.375 
Q 6.59375 54.828125 13.0625 64.515625 
Q 19.53125 74.21875 31.78125 74.21875 
z
" id="DejaVuSans-48"/>
      </defs>
      <g transform="translate(151.735937 644.598438)scale(0.1 -0.1)">
       <use xlink:href="#DejaVuSans-48"/>
      </g>
     </g>
    </g>
    <g id="xtick_2">
     <g id="line2d_2">
      <g>
       <use style="stroke:#000000;stroke-width:0.8;" x="230.20813" xlink:href="#mbffd8df4ff" y="630"/>
      </g>
     </g>
     <g id="text_2">
      <!-- 10 -->
      <defs>
       <path d="M 12.40625 8.296875 
L 28.515625 8.296875 
L 28.515625 63.921875 
L 10.984375 60.40625 
L 10.984375 69.390625 
L 28.421875 72.90625 
L 38.28125 72.90625 
L 38.28125 8.296875 
L 54.390625 8.296875 
L 54.390625 0 
L 12.40625 0 
z
" id="DejaVuSans-49"/>
      </defs>
      <g transform="translate(223.84563 644.598438)scale(0.1 -0.1)">
       <use xlink:href="#DejaVuSans-49"/>
       <use x="63.623047" xlink:href="#DejaVuSans-48"/>
      </g>
     </g>
    </g>
    <g id="xtick_3">
     <g id="line2d_3">
      <g>
       <use style="stroke:#000000;stroke-width:0.8;" x="305.499072" xlink:href="#mbffd8df4ff" y="630"/>
      </g>
     </g>
     <g id="text_3">
      <!-- 20 -->
      <defs>
       <path d="M 19.1875 8.296875 
L 53.609375 8.296875 
L 53.609375 0 
L 7.328125 0 
L 7.328125 8.296875 
Q 12.9375 14.109375 22.625 23.890625 
Q 32.328125 33.6875 34.8125 36.53125 
Q 39.546875 41.84375 41.421875 45.53125 
Q 43.3125 49.21875 43.3125 52.78125 
Q 43.3125 58.59375 39.234375 62.25 
Q 35.15625 65.921875 28.609375 65.921875 
Q 23.96875 65.921875 18.8125 64.3125 
Q 13.671875 62.703125 7.8125 59.421875 
L 7.8125 69.390625 
Q 13.765625 71.78125 18.9375 73 
Q 24.125 74.21875 28.421875 74.21875 
Q 39.75 74.21875 46.484375 68.546875 
Q 53.21875 62.890625 53.21875 53.421875 
Q 53.21875 48.921875 51.53125 44.890625 
Q 49.859375 40.875 45.40625 35.40625 
Q 44.1875 33.984375 37.640625 27.21875 
Q 31.109375 20.453125 19.1875 8.296875 
z
" id="DejaVuSans-50"/>
      </defs>
      <g transform="translate(299.136572 644.598438)scale(0.1 -0.1)">
       <use xlink:href="#DejaVuSans-50"/>
       <use x="63.623047" xlink:href="#DejaVuSans-48"/>
      </g>
     </g>
    </g>
    <g id="xtick_4">
     <g id="line2d_4">
      <g>
       <use style="stroke:#000000;stroke-width:0.8;" x="380.790015" xlink:href="#mbffd8df4ff" y="630"/>
      </g>
     </g>
     <g id="text_4">
      <!-- 30 -->
      <defs>
       <path d="M 40.578125 39.3125 
Q 47.65625 37.796875 51.625 33 
Q 55.609375 28.21875 55.609375 21.1875 
Q 55.609375 10.40625 48.1875 4.484375 
Q 40.765625 -1.421875 27.09375 -1.421875 
Q 22.515625 -1.421875 17.65625 -0.515625 
Q 12.796875 0.390625 7.625 2.203125 
L 7.625 11.71875 
Q 11.71875 9.328125 16.59375 8.109375 
Q 21.484375 6.890625 26.8125 6.890625 
Q 36.078125 6.890625 40.9375 10.546875 
Q 45.796875 14.203125 45.796875 21.1875 
Q 45.796875 27.640625 41.28125 31.265625 
Q 36.765625 34.90625 28.71875 34.90625 
L 20.21875 34.90625 
L 20.21875 43.015625 
L 29.109375 43.015625 
Q 36.375 43.015625 40.234375 45.921875 
Q 44.09375 48.828125 44.09375 54.296875 
Q 44.09375 59.90625 40.109375 62.90625 
Q 36.140625 65.921875 28.71875 65.921875 
Q 24.65625 65.921875 20.015625 65.03125 
Q 15.375 64.15625 9.8125 62.3125 
L 9.8125 71.09375 
Q 15.4375 72.65625 20.34375 73.4375 
Q 25.25 74.21875 29.59375 74.21875 
Q 40.828125 74.21875 47.359375 69.109375 
Q 53.90625 64.015625 53.90625 55.328125 
Q 53.90625 49.265625 50.4375 45.09375 
Q 46.96875 40.921875 40.578125 39.3125 
z
" id="DejaVuSans-51"/>
      </defs>
      <g transform="translate(374.427515 644.598438)scale(0.1 -0.1)">
       <use xlink:href="#DejaVuSans-51"/>
       <use x="63.623047" xlink:href="#DejaVuSans-48"/>
      </g>
     </g>
    </g>
    <g id="xtick_5">
     <g id="line2d_5">
      <g>
       <use style="stroke:#000000;stroke-width:0.8;" x="456.080958" xlink:href="#mbffd8df4ff" y="630"/>
      </g>
     </g>
     <g id="text_5">
      <!-- 40 -->
      <defs>
       <path d="M 37.796875 64.3125 
L 12.890625 25.390625 
L 37.796875 25.390625 
z
M 35.203125 72.90625 
L 47.609375 72.90625 
L 47.609375 25.390625 
L 58.015625 25.390625 
L 58.015625 17.1875 
L 47.609375 17.1875 
L 47.609375 0 
L 37.796875 0 
L 37.796875 17.1875 
L 4.890625 17.1875 
L 4.890625 26.703125 
z
" id="DejaVuSans-52"/>
      </defs>
      <g transform="translate(449.718458 644.598438)scale(0.1 -0.1)">
       <use xlink:href="#DejaVuSans-52"/>
       <use x="63.623047" xlink:href="#DejaVuSans-48"/>
      </g>
     </g>
    </g>
    <g id="xtick_6">
     <g id="line2d_6">
      <g>
       <use style="stroke:#000000;stroke-width:0.8;" x="531.371901" xlink:href="#mbffd8df4ff" y="630"/>
      </g>
     </g>
     <g id="text_6">
      <!-- 50 -->
      <defs>
       <path d="M 10.796875 72.90625 
L 49.515625 72.90625 
L 49.515625 64.59375 
L 19.828125 64.59375 
L 19.828125 46.734375 
Q 21.96875 47.46875 24.109375 47.828125 
Q 26.265625 48.1875 28.421875 48.1875 
Q 40.625 48.1875 47.75 41.5 
Q 54.890625 34.8125 54.890625 23.390625 
Q 54.890625 11.625 47.5625 5.09375 
Q 40.234375 -1.421875 26.90625 -1.421875 
Q 22.3125 -1.421875 17.546875 -0.640625 
Q 12.796875 0.140625 7.71875 1.703125 
L 7.71875 11.625 
Q 12.109375 9.234375 16.796875 8.0625 
Q 21.484375 6.890625 26.703125 6.890625 
Q 35.15625 6.890625 40.078125 11.328125 
Q 45.015625 15.765625 45.015625 23.390625 
Q 45.015625 31 40.078125 35.4375 
Q 35.15625 39.890625 26.703125 39.890625 
Q 22.75 39.890625 18.8125 39.015625 
Q 14.890625 38.140625 10.796875 36.28125 
z
" id="DejaVuSans-53"/>
      </defs>
      <g transform="translate(525.009401 644.598438)scale(0.1 -0.1)">
       <use xlink:href="#DejaVuSans-53"/>
       <use x="63.623047" xlink:href="#DejaVuSans-48"/>
      </g>
     </g>
    </g>
    <g id="text_7">
     <!-- Epochs -->
     <defs>
      <path d="M 9.8125 72.90625 
L 55.90625 72.90625 
L 55.90625 64.59375 
L 19.671875 64.59375 
L 19.671875 43.015625 
L 54.390625 43.015625 
L 54.390625 34.71875 
L 19.671875 34.71875 
L 19.671875 8.296875 
L 56.78125 8.296875 
L 56.78125 0 
L 9.8125 0 
z
" id="DejaVuSans-69"/>
      <path d="M 18.109375 8.203125 
L 18.109375 -20.796875 
L 9.078125 -20.796875 
L 9.078125 54.6875 
L 18.109375 54.6875 
L 18.109375 46.390625 
Q 20.953125 51.265625 25.265625 53.625 
Q 29.59375 56 35.59375 56 
Q 45.5625 56 51.78125 48.09375 
Q 58.015625 40.1875 58.015625 27.296875 
Q 58.015625 14.40625 51.78125 6.484375 
Q 45.5625 -1.421875 35.59375 -1.421875 
Q 29.59375 -1.421875 25.265625 0.953125 
Q 20.953125 3.328125 18.109375 8.203125 
z
M 48.6875 27.296875 
Q 48.6875 37.203125 44.609375 42.84375 
Q 40.53125 48.484375 33.40625 48.484375 
Q 26.265625 48.484375 22.1875 42.84375 
Q 18.109375 37.203125 18.109375 27.296875 
Q 18.109375 17.390625 22.1875 11.75 
Q 26.265625 6.109375 33.40625 6.109375 
Q 40.53125 6.109375 44.609375 11.75 
Q 48.6875 17.390625 48.6875 27.296875 
z
" id="DejaVuSans-112"/>
      <path d="M 30.609375 48.390625 
Q 23.390625 48.390625 19.1875 42.75 
Q 14.984375 37.109375 14.984375 27.296875 
Q 14.984375 17.484375 19.15625 11.84375 
Q 23.34375 6.203125 30.609375 6.203125 
Q 37.796875 6.203125 41.984375 11.859375 
Q 46.1875 17.53125 46.1875 27.296875 
Q 46.1875 37.015625 41.984375 42.703125 
Q 37.796875 48.390625 30.609375 48.390625 
z
M 30.609375 56 
Q 42.328125 56 49.015625 48.375 
Q 55.71875 40.765625 55.71875 27.296875 
Q 55.71875 13.875 49.015625 6.21875 
Q 42.328125 -1.421875 30.609375 -1.421875 
Q 18.84375 -1.421875 12.171875 6.21875 
Q 5.515625 13.875 5.515625 27.296875 
Q 5.515625 40.765625 12.171875 48.375 
Q 18.84375 56 30.609375 56 
z
" id="DejaVuSans-111"/>
      <path d="M 48.78125 52.59375 
L 48.78125 44.1875 
Q 44.96875 46.296875 41.140625 47.34375 
Q 37.3125 48.390625 33.40625 48.390625 
Q 24.65625 48.390625 19.8125 42.84375 
Q 14.984375 37.3125 14.984375 27.296875 
Q 14.984375 17.28125 19.8125 11.734375 
Q 24.65625 6.203125 33.40625 6.203125 
Q 37.3125 6.203125 41.140625 7.25 
Q 44.96875 8.296875 48.78125 10.40625 
L 48.78125 2.09375 
Q 45.015625 0.34375 40.984375 -0.53125 
Q 36.96875 -1.421875 32.421875 -1.421875 
Q 20.0625 -1.421875 12.78125 6.34375 
Q 5.515625 14.109375 5.515625 27.296875 
Q 5.515625 40.671875 12.859375 48.328125 
Q 20.21875 56 33.015625 56 
Q 37.15625 56 41.109375 55.140625 
Q 45.0625 54.296875 48.78125 52.59375 
z
" id="DejaVuSans-99"/>
      <path d="M 54.890625 33.015625 
L 54.890625 0 
L 45.90625 0 
L 45.90625 32.71875 
Q 45.90625 40.484375 42.875 44.328125 
Q 39.84375 48.1875 33.796875 48.1875 
Q 26.515625 48.1875 22.3125 43.546875 
Q 18.109375 38.921875 18.109375 30.90625 
L 18.109375 0 
L 9.078125 0 
L 9.078125 75.984375 
L 18.109375 75.984375 
L 18.109375 46.1875 
Q 21.34375 51.125 25.703125 53.5625 
Q 30.078125 56 35.796875 56 
Q 45.21875 56 50.046875 50.171875 
Q 54.890625 44.34375 54.890625 33.015625 
z
" id="DejaVuSans-104"/>
      <path d="M 44.28125 53.078125 
L 44.28125 44.578125 
Q 40.484375 46.53125 36.375 47.5 
Q 32.28125 48.484375 27.875 48.484375 
Q 21.1875 48.484375 17.84375 46.4375 
Q 14.5 44.390625 14.5 40.28125 
Q 14.5 37.15625 16.890625 35.375 
Q 19.28125 33.59375 26.515625 31.984375 
L 29.59375 31.296875 
Q 39.15625 29.25 43.1875 25.515625 
Q 47.21875 21.78125 47.21875 15.09375 
Q 47.21875 7.46875 41.1875 3.015625 
Q 35.15625 -1.421875 24.609375 -1.421875 
Q 20.21875 -1.421875 15.453125 -0.5625 
Q 10.6875 0.296875 5.421875 2 
L 5.421875 11.28125 
Q 10.40625 8.6875 15.234375 7.390625 
Q 20.0625 6.109375 24.8125 6.109375 
Q 31.15625 6.109375 34.5625 8.28125 
Q 37.984375 10.453125 37.984375 14.40625 
Q 37.984375 18.0625 35.515625 20.015625 
Q 33.0625 21.96875 24.703125 23.78125 
L 21.578125 24.515625 
Q 13.234375 26.265625 9.515625 29.90625 
Q 5.8125 33.546875 5.8125 39.890625 
Q 5.8125 47.609375 11.28125 51.796875 
Q 16.75 56 26.8125 56 
Q 31.78125 56 36.171875 55.265625 
Q 40.578125 54.546875 44.28125 53.078125 
z
" id="DejaVuSans-115"/>
     </defs>
     <g transform="translate(328.993466 658.276562)scale(0.1 -0.1)">
      <use xlink:href="#DejaVuSans-69"/>
      <use x="63.183594" xlink:href="#DejaVuSans-112"/>
      <use x="126.660156" xlink:href="#DejaVuSans-111"/>
      <use x="187.841797" xlink:href="#DejaVuSans-99"/>
      <use x="242.822266" xlink:href="#DejaVuSans-104"/>
      <use x="306.201172" xlink:href="#DejaVuSans-115"/>
     </g>
    </g>
   </g>
   <g id="matplotlib.axis_2">
    <g id="ytick_1">
     <g id="line2d_7">
      <defs>
       <path d="M 0 0 
L -3.5 0 
" id="m91202cf79f" style="stroke:#000000;stroke-width:0.8;"/>
      </defs>
      <g>
       <use style="stroke:#000000;stroke-width:0.8;" x="144" xlink:href="#m91202cf79f" y="584.51397"/>
      </g>
     </g>
     <g id="text_8">
      <!-- 0.1 -->
      <defs>
       <path d="M 10.6875 12.40625 
L 21 12.40625 
L 21 0 
L 10.6875 0 
z
" id="DejaVuSans-46"/>
      </defs>
      <g transform="translate(121.096875 588.313188)scale(0.1 -0.1)">
       <use xlink:href="#DejaVuSans-48"/>
       <use x="63.623047" xlink:href="#DejaVuSans-46"/>
       <use x="95.410156" xlink:href="#DejaVuSans-49"/>
      </g>
     </g>
    </g>
    <g id="ytick_2">
     <g id="line2d_8">
      <g>
       <use style="stroke:#000000;stroke-width:0.8;" x="144" xlink:href="#m91202cf79f" y="520.874229"/>
      </g>
     </g>
     <g id="text_9">
      <!-- 0.2 -->
      <g transform="translate(121.096875 524.673447)scale(0.1 -0.1)">
       <use xlink:href="#DejaVuSans-48"/>
       <use x="63.623047" xlink:href="#DejaVuSans-46"/>
       <use x="95.410156" xlink:href="#DejaVuSans-50"/>
      </g>
     </g>
    </g>
    <g id="ytick_3">
     <g id="line2d_9">
      <g>
       <use style="stroke:#000000;stroke-width:0.8;" x="144" xlink:href="#m91202cf79f" y="457.234487"/>
      </g>
     </g>
     <g id="text_10">
      <!-- 0.3 -->
      <g transform="translate(121.096875 461.033706)scale(0.1 -0.1)">
       <use xlink:href="#DejaVuSans-48"/>
       <use x="63.623047" xlink:href="#DejaVuSans-46"/>
       <use x="95.410156" xlink:href="#DejaVuSans-51"/>
      </g>
     </g>
    </g>
    <g id="ytick_4">
     <g id="line2d_10">
      <g>
       <use style="stroke:#000000;stroke-width:0.8;" x="144" xlink:href="#m91202cf79f" y="393.594746"/>
      </g>
     </g>
     <g id="text_11">
      <!-- 0.4 -->
      <g transform="translate(121.096875 397.393965)scale(0.1 -0.1)">
       <use xlink:href="#DejaVuSans-48"/>
       <use x="63.623047" xlink:href="#DejaVuSans-46"/>
       <use x="95.410156" xlink:href="#DejaVuSans-52"/>
      </g>
     </g>
    </g>
    <g id="ytick_5">
     <g id="line2d_11">
      <g>
       <use style="stroke:#000000;stroke-width:0.8;" x="144" xlink:href="#m91202cf79f" y="329.955005"/>
      </g>
     </g>
     <g id="text_12">
      <!-- 0.5 -->
      <g transform="translate(121.096875 333.754224)scale(0.1 -0.1)">
       <use xlink:href="#DejaVuSans-48"/>
       <use x="63.623047" xlink:href="#DejaVuSans-46"/>
       <use x="95.410156" xlink:href="#DejaVuSans-53"/>
      </g>
     </g>
    </g>
    <g id="ytick_6">
     <g id="line2d_12">
      <g>
       <use style="stroke:#000000;stroke-width:0.8;" x="144" xlink:href="#m91202cf79f" y="266.315264"/>
      </g>
     </g>
     <g id="text_13">
      <!-- 0.6 -->
      <defs>
       <path d="M 33.015625 40.375 
Q 26.375 40.375 22.484375 35.828125 
Q 18.609375 31.296875 18.609375 23.390625 
Q 18.609375 15.53125 22.484375 10.953125 
Q 26.375 6.390625 33.015625 6.390625 
Q 39.65625 6.390625 43.53125 10.953125 
Q 47.40625 15.53125 47.40625 23.390625 
Q 47.40625 31.296875 43.53125 35.828125 
Q 39.65625 40.375 33.015625 40.375 
z
M 52.59375 71.296875 
L 52.59375 62.3125 
Q 48.875 64.0625 45.09375 64.984375 
Q 41.3125 65.921875 37.59375 65.921875 
Q 27.828125 65.921875 22.671875 59.328125 
Q 17.53125 52.734375 16.796875 39.40625 
Q 19.671875 43.65625 24.015625 45.921875 
Q 28.375 48.1875 33.59375 48.1875 
Q 44.578125 48.1875 50.953125 41.515625 
Q 57.328125 34.859375 57.328125 23.390625 
Q 57.328125 12.15625 50.6875 5.359375 
Q 44.046875 -1.421875 33.015625 -1.421875 
Q 20.359375 -1.421875 13.671875 8.265625 
Q 6.984375 17.96875 6.984375 36.375 
Q 6.984375 53.65625 15.1875 63.9375 
Q 23.390625 74.21875 37.203125 74.21875 
Q 40.921875 74.21875 44.703125 73.484375 
Q 48.484375 72.75 52.59375 71.296875 
z
" id="DejaVuSans-54"/>
      </defs>
      <g transform="translate(121.096875 270.114483)scale(0.1 -0.1)">
       <use xlink:href="#DejaVuSans-48"/>
       <use x="63.623047" xlink:href="#DejaVuSans-46"/>
       <use x="95.410156" xlink:href="#DejaVuSans-54"/>
      </g>
     </g>
    </g>
    <g id="ytick_7">
     <g id="line2d_13">
      <g>
       <use style="stroke:#000000;stroke-width:0.8;" x="144" xlink:href="#m91202cf79f" y="202.675523"/>
      </g>
     </g>
     <g id="text_14">
      <!-- 0.7 -->
      <defs>
       <path d="M 8.203125 72.90625 
L 55.078125 72.90625 
L 55.078125 68.703125 
L 28.609375 0 
L 18.3125 0 
L 43.21875 64.59375 
L 8.203125 64.59375 
z
" id="DejaVuSans-55"/>
      </defs>
      <g transform="translate(121.096875 206.474742)scale(0.1 -0.1)">
       <use xlink:href="#DejaVuSans-48"/>
       <use x="63.623047" xlink:href="#DejaVuSans-46"/>
       <use x="95.410156" xlink:href="#DejaVuSans-55"/>
      </g>
     </g>
    </g>
    <g id="ytick_8">
     <g id="line2d_14">
      <g>
       <use style="stroke:#000000;stroke-width:0.8;" x="144" xlink:href="#m91202cf79f" y="139.035782"/>
      </g>
     </g>
     <g id="text_15">
      <!-- 0.8 -->
      <defs>
       <path d="M 31.78125 34.625 
Q 24.75 34.625 20.71875 30.859375 
Q 16.703125 27.09375 16.703125 20.515625 
Q 16.703125 13.921875 20.71875 10.15625 
Q 24.75 6.390625 31.78125 6.390625 
Q 38.8125 6.390625 42.859375 10.171875 
Q 46.921875 13.96875 46.921875 20.515625 
Q 46.921875 27.09375 42.890625 30.859375 
Q 38.875 34.625 31.78125 34.625 
z
M 21.921875 38.8125 
Q 15.578125 40.375 12.03125 44.71875 
Q 8.5 49.078125 8.5 55.328125 
Q 8.5 64.0625 14.71875 69.140625 
Q 20.953125 74.21875 31.78125 74.21875 
Q 42.671875 74.21875 48.875 69.140625 
Q 55.078125 64.0625 55.078125 55.328125 
Q 55.078125 49.078125 51.53125 44.71875 
Q 48 40.375 41.703125 38.8125 
Q 48.828125 37.15625 52.796875 32.3125 
Q 56.78125 27.484375 56.78125 20.515625 
Q 56.78125 9.90625 50.3125 4.234375 
Q 43.84375 -1.421875 31.78125 -1.421875 
Q 19.734375 -1.421875 13.25 4.234375 
Q 6.78125 9.90625 6.78125 20.515625 
Q 6.78125 27.484375 10.78125 32.3125 
Q 14.796875 37.15625 21.921875 38.8125 
z
M 18.3125 54.390625 
Q 18.3125 48.734375 21.84375 45.5625 
Q 25.390625 42.390625 31.78125 42.390625 
Q 38.140625 42.390625 41.71875 45.5625 
Q 45.3125 48.734375 45.3125 54.390625 
Q 45.3125 60.0625 41.71875 63.234375 
Q 38.140625 66.40625 31.78125 66.40625 
Q 25.390625 66.40625 21.84375 63.234375 
Q 18.3125 60.0625 18.3125 54.390625 
z
" id="DejaVuSans-56"/>
      </defs>
      <g transform="translate(121.096875 142.835)scale(0.1 -0.1)">
       <use xlink:href="#DejaVuSans-48"/>
       <use x="63.623047" xlink:href="#DejaVuSans-46"/>
       <use x="95.410156" xlink:href="#DejaVuSans-56"/>
      </g>
     </g>
    </g>
    <g id="text_16">
     <!-- Validation accuracy -->
     <defs>
      <path d="M 28.609375 0 
L 0.78125 72.90625 
L 11.078125 72.90625 
L 34.1875 11.53125 
L 57.328125 72.90625 
L 67.578125 72.90625 
L 39.796875 0 
z
" id="DejaVuSans-86"/>
      <path d="M 34.28125 27.484375 
Q 23.390625 27.484375 19.1875 25 
Q 14.984375 22.515625 14.984375 16.5 
Q 14.984375 11.71875 18.140625 8.90625 
Q 21.296875 6.109375 26.703125 6.109375 
Q 34.1875 6.109375 38.703125 11.40625 
Q 43.21875 16.703125 43.21875 25.484375 
L 43.21875 27.484375 
z
M 52.203125 31.203125 
L 52.203125 0 
L 43.21875 0 
L 43.21875 8.296875 
Q 40.140625 3.328125 35.546875 0.953125 
Q 30.953125 -1.421875 24.3125 -1.421875 
Q 15.921875 -1.421875 10.953125 3.296875 
Q 6 8.015625 6 15.921875 
Q 6 25.140625 12.171875 29.828125 
Q 18.359375 34.515625 30.609375 34.515625 
L 43.21875 34.515625 
L 43.21875 35.40625 
Q 43.21875 41.609375 39.140625 45 
Q 35.0625 48.390625 27.6875 48.390625 
Q 23 48.390625 18.546875 47.265625 
Q 14.109375 46.140625 10.015625 43.890625 
L 10.015625 52.203125 
Q 14.9375 54.109375 19.578125 55.046875 
Q 24.21875 56 28.609375 56 
Q 40.484375 56 46.34375 49.84375 
Q 52.203125 43.703125 52.203125 31.203125 
z
" id="DejaVuSans-97"/>
      <path d="M 9.421875 75.984375 
L 18.40625 75.984375 
L 18.40625 0 
L 9.421875 0 
z
" id="DejaVuSans-108"/>
      <path d="M 9.421875 54.6875 
L 18.40625 54.6875 
L 18.40625 0 
L 9.421875 0 
z
M 9.421875 75.984375 
L 18.40625 75.984375 
L 18.40625 64.59375 
L 9.421875 64.59375 
z
" id="DejaVuSans-105"/>
      <path d="M 45.40625 46.390625 
L 45.40625 75.984375 
L 54.390625 75.984375 
L 54.390625 0 
L 45.40625 0 
L 45.40625 8.203125 
Q 42.578125 3.328125 38.25 0.953125 
Q 33.9375 -1.421875 27.875 -1.421875 
Q 17.96875 -1.421875 11.734375 6.484375 
Q 5.515625 14.40625 5.515625 27.296875 
Q 5.515625 40.1875 11.734375 48.09375 
Q 17.96875 56 27.875 56 
Q 33.9375 56 38.25 53.625 
Q 42.578125 51.265625 45.40625 46.390625 
z
M 14.796875 27.296875 
Q 14.796875 17.390625 18.875 11.75 
Q 22.953125 6.109375 30.078125 6.109375 
Q 37.203125 6.109375 41.296875 11.75 
Q 45.40625 17.390625 45.40625 27.296875 
Q 45.40625 37.203125 41.296875 42.84375 
Q 37.203125 48.484375 30.078125 48.484375 
Q 22.953125 48.484375 18.875 42.84375 
Q 14.796875 37.203125 14.796875 27.296875 
z
" id="DejaVuSans-100"/>
      <path d="M 18.3125 70.21875 
L 18.3125 54.6875 
L 36.8125 54.6875 
L 36.8125 47.703125 
L 18.3125 47.703125 
L 18.3125 18.015625 
Q 18.3125 11.328125 20.140625 9.421875 
Q 21.96875 7.515625 27.59375 7.515625 
L 36.8125 7.515625 
L 36.8125 0 
L 27.59375 0 
Q 17.1875 0 13.234375 3.875 
Q 9.28125 7.765625 9.28125 18.015625 
L 9.28125 47.703125 
L 2.6875 47.703125 
L 2.6875 54.6875 
L 9.28125 54.6875 
L 9.28125 70.21875 
z
" id="DejaVuSans-116"/>
      <path d="M 54.890625 33.015625 
L 54.890625 0 
L 45.90625 0 
L 45.90625 32.71875 
Q 45.90625 40.484375 42.875 44.328125 
Q 39.84375 48.1875 33.796875 48.1875 
Q 26.515625 48.1875 22.3125 43.546875 
Q 18.109375 38.921875 18.109375 30.90625 
L 18.109375 0 
L 9.078125 0 
L 9.078125 54.6875 
L 18.109375 54.6875 
L 18.109375 46.1875 
Q 21.34375 51.125 25.703125 53.5625 
Q 30.078125 56 35.796875 56 
Q 45.21875 56 50.046875 50.171875 
Q 54.890625 44.34375 54.890625 33.015625 
z
" id="DejaVuSans-110"/>
      <path id="DejaVuSans-32"/>
      <path d="M 8.5 21.578125 
L 8.5 54.6875 
L 17.484375 54.6875 
L 17.484375 21.921875 
Q 17.484375 14.15625 20.5 10.265625 
Q 23.53125 6.390625 29.59375 6.390625 
Q 36.859375 6.390625 41.078125 11.03125 
Q 45.3125 15.671875 45.3125 23.6875 
L 45.3125 54.6875 
L 54.296875 54.6875 
L 54.296875 0 
L 45.3125 0 
L 45.3125 8.40625 
Q 42.046875 3.421875 37.71875 1 
Q 33.40625 -1.421875 27.6875 -1.421875 
Q 18.265625 -1.421875 13.375 4.4375 
Q 8.5 10.296875 8.5 21.578125 
z
M 31.109375 56 
z
" id="DejaVuSans-117"/>
      <path d="M 41.109375 46.296875 
Q 39.59375 47.171875 37.8125 47.578125 
Q 36.03125 48 33.890625 48 
Q 26.265625 48 22.1875 43.046875 
Q 18.109375 38.09375 18.109375 28.8125 
L 18.109375 0 
L 9.078125 0 
L 9.078125 54.6875 
L 18.109375 54.6875 
L 18.109375 46.1875 
Q 20.953125 51.171875 25.484375 53.578125 
Q 30.03125 56 36.53125 56 
Q 37.453125 56 38.578125 55.875 
Q 39.703125 55.765625 41.0625 55.515625 
z
" id="DejaVuSans-114"/>
      <path d="M 32.171875 -5.078125 
Q 28.375 -14.84375 24.75 -17.8125 
Q 21.140625 -20.796875 15.09375 -20.796875 
L 7.90625 -20.796875 
L 7.90625 -13.28125 
L 13.1875 -13.28125 
Q 16.890625 -13.28125 18.9375 -11.515625 
Q 21 -9.765625 23.484375 -3.21875 
L 25.09375 0.875 
L 2.984375 54.6875 
L 12.5 54.6875 
L 29.59375 11.921875 
L 46.6875 54.6875 
L 56.203125 54.6875 
z
" id="DejaVuSans-121"/>
     </defs>
     <g transform="translate(115.017187 407.039062)rotate(-90)scale(0.1 -0.1)">
      <use xlink:href="#DejaVuSans-86"/>
      <use x="60.658203" xlink:href="#DejaVuSans-97"/>
      <use x="121.9375" xlink:href="#DejaVuSans-108"/>
      <use x="149.720703" xlink:href="#DejaVuSans-105"/>
      <use x="177.503906" xlink:href="#DejaVuSans-100"/>
      <use x="240.980469" xlink:href="#DejaVuSans-97"/>
      <use x="302.259766" xlink:href="#DejaVuSans-116"/>
      <use x="341.46875" xlink:href="#DejaVuSans-105"/>
      <use x="369.251953" xlink:href="#DejaVuSans-111"/>
      <use x="430.433594" xlink:href="#DejaVuSans-110"/>
      <use x="493.8125" xlink:href="#DejaVuSans-32"/>
      <use x="525.599609" xlink:href="#DejaVuSans-97"/>
      <use x="586.878906" xlink:href="#DejaVuSans-99"/>
      <use x="641.859375" xlink:href="#DejaVuSans-99"/>
      <use x="696.839844" xlink:href="#DejaVuSans-117"/>
      <use x="760.21875" xlink:href="#DejaVuSans-114"/>
      <use x="801.332031" xlink:href="#DejaVuSans-97"/>
      <use x="862.611328" xlink:href="#DejaVuSans-99"/>
      <use x="917.591797" xlink:href="#DejaVuSans-121"/>
     </g>
    </g>
   </g>
   <g id="line2d_15">
    <path clip-path="url(#p098d0844ea)" d="M 162.446281 595.944025 
L 169.975375 549.199903 
L 177.50447 506.929926 
L 185.033564 468.70585 
L 192.562658 434.140418 
L 200.091752 402.883441 
L 207.620847 374.618246 
L 215.149941 349.058475 
L 222.679035 325.945174 
L 230.20813 305.04418 
L 237.737224 286.143738 
L 245.266318 269.052366 
L 252.795412 253.596906 
L 260.324507 239.620776 
L 267.853601 226.982382 
L 275.382695 215.55368 
L 282.91179 205.218884 
L 290.440884 195.87329 
L 297.969978 187.422216 
L 305.499072 179.780043 
L 313.028167 172.869346 
L 320.557261 166.620111 
L 328.086355 160.969025 
L 335.615449 155.858838 
L 343.144544 151.237775 
L 350.673638 147.059021 
L 358.202732 143.280239 
L 365.731827 139.863146 
L 373.260921 136.773122 
L 380.790015 133.978862 
L 388.319109 131.452057 
L 395.848204 129.167106 
L 403.377298 127.100861 
L 410.906392 125.232389 
L 418.435487 123.542758 
L 425.964581 122.014852 
L 433.493675 120.63319 
L 441.022769 119.383775 
L 448.551864 118.253948 
L 456.080958 117.232264 
L 463.610052 116.308371 
L 471.139147 115.472909 
L 478.668241 114.717414 
L 486.197335 114.034231 
L 493.726429 113.41644 
L 501.255524 112.857781 
L 508.784618 112.352595 
L 516.313712 111.895762 
L 523.842807 111.482656 
L 531.371901 111.109091 
" style="fill:none;stroke:#e5cf52;stroke-linecap:square;stroke-width:1.5;"/>
   </g>
   <g id="line2d_16">
    <path clip-path="url(#p098d0844ea)" d="M 162.446281 605.290909 
L 169.975375 565.421301 
L 177.50447 528.825674 
L 185.033564 495.235178 
L 192.562658 464.403039 
L 200.091752 436.10275 
L 207.620847 410.126401 
L 215.149941 386.283158 
L 222.679035 364.397856 
L 230.20813 344.309713 
L 237.737224 325.871153 
L 245.266318 308.946716 
L 252.795412 293.412066 
L 260.324507 279.153078 
L 267.853601 266.064999 
L 275.382695 254.051676 
L 282.91179 243.024854 
L 290.440884 232.903524 
L 297.969978 223.613329 
L 305.499072 215.086019 
L 313.028167 207.258948 
L 320.557261 200.074614 
L 328.086355 193.480238 
L 335.615449 187.427373 
L 343.144544 181.871553 
L 350.673638 176.771961 
L 358.202732 172.091134 
L 365.731827 167.794682 
L 373.260921 163.851044 
L 380.790015 160.231246 
L 388.319109 156.908696 
L 395.848204 153.858984 
L 403.377298 151.059707 
L 410.906392 148.490298 
L 418.435487 146.131881 
L 425.964581 143.967132 
L 433.493675 141.980145 
L 441.022769 140.156325 
L 448.551864 138.482271 
L 456.080958 136.945686 
L 463.610052 135.535281 
L 471.139147 134.240695 
L 478.668241 133.052416 
L 486.197335 131.961716 
L 493.726429 130.96058 
L 501.255524 130.041656 
L 508.784618 129.19819 
L 516.313712 128.423988 
L 523.842807 127.713361 
L 531.371901 127.061089 
" style="fill:none;stroke:#c8b866;stroke-linecap:square;stroke-width:1.5;"/>
   </g>
   <g id="line2d_17">
    <path clip-path="url(#p098d0844ea)" d="M 162.446281 592.830087 
L 169.975375 568.184759 
L 177.50447 544.720459 
L 185.033564 522.38059 
L 192.562658 501.111268 
L 200.091752 480.861192 
L 207.620847 461.581519 
L 215.149941 443.225745 
L 222.679035 425.749598 
L 230.20813 409.110924 
L 237.737224 393.269591 
L 245.266318 378.187389 
L 252.795412 363.827941 
L 260.324507 350.15661 
L 267.853601 337.140423 
L 275.382695 324.747984 
L 282.91179 312.949402 
L 290.440884 301.716219 
L 297.969978 291.02134 
L 305.499072 280.838971 
L 313.028167 271.14455 
L 320.557261 261.914694 
L 328.086355 253.127143 
L 335.615449 244.760698 
L 343.144544 236.795182 
L 350.673638 229.211381 
L 358.202732 221.991002 
L 365.731827 215.116631 
L 373.260921 208.571686 
L 380.790015 202.340381 
L 388.319109 196.407686 
L 395.848204 190.759291 
L 403.377298 185.381573 
L 410.906392 180.26156 
L 418.435487 175.386903 
L 425.964581 170.745843 
L 433.493675 166.327188 
L 441.022769 162.120279 
L 448.551864 158.114969 
L 456.080958 154.301597 
L 463.610052 150.670966 
L 471.139147 147.214318 
L 478.668241 143.923315 
L 486.197335 140.790021 
L 493.726429 137.806877 
L 501.255524 134.966688 
L 508.784618 132.262603 
L 516.313712 129.688101 
L 523.842807 127.236971 
L 531.371901 124.903302 
" style="fill:none;stroke:#aea371;stroke-linecap:square;stroke-width:1.5;"/>
   </g>
   <g id="line2d_18">
    <path clip-path="url(#p098d0844ea)" d="M 162.446281 595.314383 
L 169.975375 583.153926 
L 177.50447 571.196662 
L 185.033564 559.439197 
L 192.562658 547.878192 
L 200.091752 536.510363 
L 207.620847 525.332483 
L 215.149941 514.341379 
L 222.679035 503.533929 
L 230.20813 492.907064 
L 237.737224 482.457767 
L 245.266318 472.183072 
L 252.795412 462.08006 
L 260.324507 452.145862 
L 267.853601 442.377659 
L 275.382695 432.772676 
L 282.91179 423.328186 
L 290.440884 414.041508 
L 297.969978 404.910003 
L 305.499072 395.931081 
L 313.028167 387.10219 
L 320.557261 378.420825 
L 328.086355 369.884519 
L 335.615449 361.49085 
L 343.144544 353.237433 
L 350.673638 345.121926 
L 358.202732 337.142023 
L 365.731827 329.29546 
L 373.260921 321.580007 
L 380.790015 313.993475 
L 388.319109 306.533709 
L 395.848204 299.19859 
L 403.377298 291.986037 
L 410.906392 284.894001 
L 418.435487 277.920468 
L 425.964581 271.063459 
L 433.493675 264.321025 
L 441.022769 257.691253 
L 448.551864 251.172261 
L 456.080958 244.762197 
L 463.610052 238.45924 
L 471.139147 232.261602 
L 478.668241 226.167523 
L 486.197335 220.175272 
L 493.726429 214.283147 
L 501.255524 208.489476 
L 508.784618 202.792613 
L 516.313712 197.190942 
L 523.842807 191.68287 
L 531.371901 186.266835 
" style="fill:none;stroke:#948e77;stroke-linecap:square;stroke-width:1.5;"/>
   </g>
   <g id="line2d_19">
    <path clip-path="url(#p098d0844ea)" d="M 162.446281 584.339443 
L 169.975375 572.885902 
L 177.50447 561.672541 
L 185.033564 550.694324 
L 192.562658 539.946321 
L 200.091752 529.423702 
L 207.620847 519.121743 
L 215.149941 509.035815 
L 222.679035 499.161389 
L 230.20813 489.494029 
L 237.737224 480.029394 
L 245.266318 470.763232 
L 252.795412 461.69138 
L 260.324507 452.809766 
L 267.853601 444.114398 
L 275.382695 435.601372 
L 282.91179 427.266865 
L 290.440884 419.107131 
L 297.969978 411.118507 
L 305.499072 403.297404 
L 313.028167 395.640309 
L 320.557261 388.143784 
L 328.086355 380.80446 
L 335.615449 373.619042 
L 343.144544 366.584301 
L 350.673638 359.69708 
L 358.202732 352.954282 
L 365.731827 346.352882 
L 373.260921 339.889912 
L 380.790015 333.562471 
L 388.319109 327.367716 
L 395.848204 321.302864 
L 403.377298 315.365193 
L 410.906392 309.552034 
L 418.435487 303.860777 
L 425.964581 298.288866 
L 433.493675 292.833797 
L 441.022769 287.493121 
L 448.551864 282.264439 
L 456.080958 277.145402 
L 463.610052 272.133711 
L 471.139147 267.227116 
L 478.668241 262.423411 
L 486.197335 257.72044 
L 493.726429 253.11609 
L 501.255524 248.608293 
L 508.784618 244.195025 
L 516.313712 239.874302 
L 523.842807 235.644186 
L 531.371901 231.502774 
" style="fill:none;stroke:#7c7b78;stroke-linecap:square;stroke-width:1.5;"/>
   </g>
   <g id="line2d_20">
    <path clip-path="url(#p098d0844ea)" d="M 162.446281 571.705416 
L 169.975375 563.270384 
L 177.50447 554.947253 
L 185.033564 546.734536 
L 192.562658 538.630771 
L 200.091752 530.63451 
L 207.620847 522.744328 
L 215.149941 514.958818 
L 222.679035 507.276591 
L 230.20813 499.696277 
L 237.737224 492.216524 
L 245.266318 484.835998 
L 252.795412 477.553383 
L 260.324507 470.367379 
L 267.853601 463.276706 
L 275.382695 456.280097 
L 282.91179 449.376307 
L 290.440884 442.564102 
L 297.969978 435.842269 
L 305.499072 429.209608 
L 313.028167 422.664936 
L 320.557261 416.207086 
L 328.086355 409.834907 
L 335.615449 403.547261 
L 343.144544 397.343028 
L 350.673638 391.221101 
L 358.202732 385.180388 
L 365.731827 379.219811 
L 373.260921 373.338307 
L 380.790015 367.534828 
L 388.319109 361.808338 
L 395.848204 356.157817 
L 403.377298 350.582255 
L 410.906392 345.08066 
L 418.435487 339.652049 
L 425.964581 334.295454 
L 433.493675 329.00992 
L 441.022769 323.794505 
L 448.551864 318.648278 
L 456.080958 313.57032 
L 463.610052 308.559728 
L 471.139147 303.615606 
L 478.668241 298.737073 
L 486.197335 293.92326 
L 493.726429 289.173306 
L 501.255524 284.486366 
L 508.784618 279.861603 
L 516.313712 275.298193 
L 523.842807 270.795321 
L 531.371901 266.352185 
" style="fill:none;stroke:#666970;stroke-linecap:square;stroke-width:1.5;"/>
   </g>
   <g id="line2d_21">
    <path clip-path="url(#p098d0844ea)" d="M 162.446281 594.665806 
L 169.975375 586.186201 
L 177.50447 577.820106 
L 185.033564 569.566002 
L 192.562658 561.422389 
L 200.091752 553.387788 
L 207.620847 545.46074 
L 215.149941 537.639805 
L 222.679035 529.923563 
L 230.20813 522.310612 
L 237.737224 514.79957 
L 245.266318 507.389072 
L 252.795412 500.077773 
L 260.324507 492.864344 
L 267.853601 485.747476 
L 275.382695 478.725876 
L 282.91179 471.798269 
L 290.440884 464.963396 
L 297.969978 458.220016 
L 305.499072 451.566905 
L 313.028167 445.002854 
L 320.557261 438.52667 
L 328.086355 432.137178 
L 335.615449 425.833217 
L 343.144544 419.613642 
L 350.673638 413.477324 
L 358.202732 407.423148 
L 365.731827 401.450015 
L 373.260921 395.556839 
L 380.790015 389.742551 
L 388.319109 384.006094 
L 395.848204 378.346426 
L 403.377298 372.76252 
L 410.906392 367.253361 
L 418.435487 361.81795 
L 425.964581 356.455297 
L 433.493675 351.164431 
L 441.022769 345.944389 
L 448.551864 340.794223 
L 456.080958 335.712999 
L 463.610052 330.699794 
L 471.139147 325.753696 
L 478.668241 320.873808 
L 486.197335 316.059243 
L 493.726429 311.309126 
L 501.255524 306.622596 
L 508.784618 301.998801 
L 516.313712 297.436901 
L 523.842807 292.936068 
L 531.371901 288.495483 
" style="fill:none;stroke:#4f576c;stroke-linecap:square;stroke-width:1.5;"/>
   </g>
   <g id="line2d_22">
    <path clip-path="url(#p098d0844ea)" d="M 162.446281 568.960843 
L 169.975375 566.734335 
L 177.50447 564.5079 
L 185.033564 562.281537 
L 192.562658 560.055246 
L 200.091752 557.829028 
L 207.620847 555.602882 
L 215.149941 553.376809 
L 222.679035 551.150808 
L 230.20813 548.924879 
L 237.737224 546.699023 
L 245.266318 544.473239 
L 252.795412 542.247527 
L 260.324507 540.021888 
L 267.853601 537.796321 
L 275.382695 535.570827 
L 282.91179 533.345405 
L 290.440884 531.120056 
L 297.969978 528.894778 
L 305.499072 526.669573 
L 313.028167 524.444441 
L 320.557261 522.219381 
L 328.086355 519.994393 
L 335.615449 517.769478 
L 343.144544 515.544634 
L 350.673638 513.319864 
L 358.202732 511.095165 
L 365.731827 508.870539 
L 373.260921 506.645986 
L 380.790015 504.421504 
L 388.319109 502.197095 
L 395.848204 499.972759 
L 403.377298 497.748494 
L 410.906392 495.524302 
L 418.435487 493.300183 
L 425.964581 491.076135 
L 433.493675 488.85216 
L 441.022769 486.628258 
L 448.551864 484.404427 
L 456.080958 482.180669 
L 463.610052 479.956984 
L 471.139147 477.73337 
L 478.668241 475.509829 
L 486.197335 473.28636 
L 493.726429 471.062964 
L 501.255524 468.83964 
L 508.784618 466.616388 
L 516.313712 464.393208 
L 523.842807 462.170101 
L 531.371901 459.947066 
" style="fill:none;stroke:#35456c;stroke-linecap:square;stroke-width:1.5;"/>
   </g>
   <g id="line2d_23">
    <path clip-path="url(#p098d0844ea)" d="M 162.446281 586.093677 
L 169.975375 578.21892 
L 177.50447 570.877668 
L 185.033564 564.033778 
L 192.562658 557.653553 
L 200.091752 551.705582 
L 207.620847 546.160579 
L 215.149941 540.991243 
L 222.679035 536.172124 
L 230.20813 531.679496 
L 237.737224 527.491237 
L 245.266318 523.586729 
L 252.795412 519.946746 
L 260.324507 516.553368 
L 267.853601 513.389888 
L 275.382695 510.44073 
L 282.91179 507.691373 
L 290.440884 505.128283 
L 297.969978 502.738839 
L 305.499072 500.511278 
L 313.028167 498.434631 
L 320.557261 496.498674 
L 328.086355 494.693877 
L 335.615449 493.011352 
L 343.144544 491.442817 
L 350.673638 489.980548 
L 358.202732 488.617346 
L 365.731827 487.3465 
L 373.260921 486.161752 
L 380.790015 485.057269 
L 388.319109 484.027614 
L 395.848204 483.067716 
L 403.377298 482.172851 
L 410.906392 481.338612 
L 418.435487 480.560891 
L 425.964581 479.835861 
L 433.493675 479.15995 
L 441.022769 478.529831 
L 448.551864 477.942402 
L 456.080958 477.394771 
L 463.610052 476.884242 
L 471.139147 476.4083 
L 478.668241 475.964602 
L 486.197335 475.550965 
L 493.726429 475.165351 
L 501.255524 474.805862 
L 508.784618 474.470728 
L 516.313712 474.158299 
L 523.842807 473.867036 
L 531.371901 473.595507 
" style="fill:none;stroke:#083370;stroke-linecap:square;stroke-width:1.5;"/>
   </g>
   <g id="line2d_24">
    <path clip-path="url(#p098d0844ea)" d="M 162.446281 584.513969 
L 169.975375 584.513969 
L 177.50447 584.513969 
L 185.033564 584.513969 
L 192.562658 584.513969 
L 200.091752 584.513969 
L 207.620847 584.513969 
L 215.149941 584.513969 
L 222.679035 584.513969 
L 230.20813 584.513969 
L 237.737224 584.513969 
L 245.266318 584.513969 
L 252.795412 584.513969 
L 260.324507 584.513969 
L 267.853601 584.513969 
L 275.382695 584.513969 
L 282.91179 584.513969 
L 290.440884 584.513969 
L 297.969978 584.513969 
L 305.499072 584.513969 
L 313.028167 584.513969 
L 320.557261 584.513969 
L 328.086355 584.513969 
L 335.615449 584.513969 
L 343.144544 584.513969 
L 350.673638 584.513969 
L 358.202732 584.513969 
L 365.731827 584.513969 
L 373.260921 584.513969 
L 380.790015 584.513969 
L 388.319109 584.513969 
L 395.848204 584.513969 
L 403.377298 584.513969 
L 410.906392 584.513969 
L 418.435487 584.513969 
L 425.964581 584.513969 
L 433.493675 584.513969 
L 441.022769 584.513969 
L 448.551864 584.513969 
L 456.080958 584.513969 
L 463.610052 584.513969 
L 471.139147 584.513969 
L 478.668241 584.513969 
L 486.197335 584.513969 
L 493.726429 584.513969 
L 501.255524 584.513969 
L 508.784618 584.513969 
L 516.313712 584.513969 
L 523.842807 584.513969 
L 531.371901 584.513969 
" style="fill:none;stroke:#00224e;stroke-linecap:square;stroke-width:1.5;"/>
   </g>
   <g id="patch_3">
    <path d="M 144 630 
L 144 86.4 
" style="fill:none;stroke:#000000;stroke-linecap:square;stroke-linejoin:miter;stroke-width:0.8;"/>
   </g>
   <g id="patch_4">
    <path d="M 549.818182 630 
L 549.818182 86.4 
" style="fill:none;stroke:#000000;stroke-linecap:square;stroke-linejoin:miter;stroke-width:0.8;"/>
   </g>
   <g id="patch_5">
    <path d="M 144 630 
L 549.818182 630 
" style="fill:none;stroke:#000000;stroke-linecap:square;stroke-linejoin:miter;stroke-width:0.8;"/>
   </g>
   <g id="patch_6">
    <path d="M 144 86.4 
L 549.818182 86.4 
" style="fill:none;stroke:#000000;stroke-linecap:square;stroke-linejoin:miter;stroke-width:0.8;"/>
   </g>
   <g id="text_17">
    <!-- Accuracy for % of model frozen -->
    <defs>
     <path d="M 34.1875 63.1875 
L 20.796875 26.90625 
L 47.609375 26.90625 
z
M 28.609375 72.90625 
L 39.796875 72.90625 
L 67.578125 0 
L 57.328125 0 
L 50.6875 18.703125 
L 17.828125 18.703125 
L 11.1875 0 
L 0.78125 0 
z
" id="DejaVuSans-65"/>
     <path d="M 37.109375 75.984375 
L 37.109375 68.5 
L 28.515625 68.5 
Q 23.6875 68.5 21.796875 66.546875 
Q 19.921875 64.59375 19.921875 59.515625 
L 19.921875 54.6875 
L 34.71875 54.6875 
L 34.71875 47.703125 
L 19.921875 47.703125 
L 19.921875 0 
L 10.890625 0 
L 10.890625 47.703125 
L 2.296875 47.703125 
L 2.296875 54.6875 
L 10.890625 54.6875 
L 10.890625 58.5 
Q 10.890625 67.625 15.140625 71.796875 
Q 19.390625 75.984375 28.609375 75.984375 
z
" id="DejaVuSans-102"/>
     <path d="M 72.703125 32.078125 
Q 68.453125 32.078125 66.03125 28.46875 
Q 63.625 24.859375 63.625 18.40625 
Q 63.625 12.0625 66.03125 8.421875 
Q 68.453125 4.78125 72.703125 4.78125 
Q 76.859375 4.78125 79.265625 8.421875 
Q 81.6875 12.0625 81.6875 18.40625 
Q 81.6875 24.8125 79.265625 28.4375 
Q 76.859375 32.078125 72.703125 32.078125 
z
M 72.703125 38.28125 
Q 80.421875 38.28125 84.953125 32.90625 
Q 89.5 27.546875 89.5 18.40625 
Q 89.5 9.28125 84.9375 3.921875 
Q 80.375 -1.421875 72.703125 -1.421875 
Q 64.890625 -1.421875 60.34375 3.921875 
Q 55.8125 9.28125 55.8125 18.40625 
Q 55.8125 27.59375 60.375 32.9375 
Q 64.9375 38.28125 72.703125 38.28125 
z
M 22.3125 68.015625 
Q 18.109375 68.015625 15.6875 64.375 
Q 13.28125 60.75 13.28125 54.390625 
Q 13.28125 47.953125 15.671875 44.328125 
Q 18.0625 40.71875 22.3125 40.71875 
Q 26.5625 40.71875 28.96875 44.328125 
Q 31.390625 47.953125 31.390625 54.390625 
Q 31.390625 60.6875 28.953125 64.34375 
Q 26.515625 68.015625 22.3125 68.015625 
z
M 66.40625 74.21875 
L 74.21875 74.21875 
L 28.609375 -1.421875 
L 20.796875 -1.421875 
z
M 22.3125 74.21875 
Q 30.03125 74.21875 34.609375 68.875 
Q 39.203125 63.53125 39.203125 54.390625 
Q 39.203125 45.171875 34.640625 39.84375 
Q 30.078125 34.515625 22.3125 34.515625 
Q 14.546875 34.515625 10.03125 39.859375 
Q 5.515625 45.21875 5.515625 54.390625 
Q 5.515625 63.484375 10.046875 68.84375 
Q 14.59375 74.21875 22.3125 74.21875 
z
" id="DejaVuSans-37"/>
     <path d="M 52 44.1875 
Q 55.375 50.25 60.0625 53.125 
Q 64.75 56 71.09375 56 
Q 79.640625 56 84.28125 50.015625 
Q 88.921875 44.046875 88.921875 33.015625 
L 88.921875 0 
L 79.890625 0 
L 79.890625 32.71875 
Q 79.890625 40.578125 77.09375 44.375 
Q 74.3125 48.1875 68.609375 48.1875 
Q 61.625 48.1875 57.5625 43.546875 
Q 53.515625 38.921875 53.515625 30.90625 
L 53.515625 0 
L 44.484375 0 
L 44.484375 32.71875 
Q 44.484375 40.625 41.703125 44.40625 
Q 38.921875 48.1875 33.109375 48.1875 
Q 26.21875 48.1875 22.15625 43.53125 
Q 18.109375 38.875 18.109375 30.90625 
L 18.109375 0 
L 9.078125 0 
L 9.078125 54.6875 
L 18.109375 54.6875 
L 18.109375 46.1875 
Q 21.1875 51.21875 25.484375 53.609375 
Q 29.78125 56 35.6875 56 
Q 41.65625 56 45.828125 52.96875 
Q 50 49.953125 52 44.1875 
z
" id="DejaVuSans-109"/>
     <path d="M 56.203125 29.59375 
L 56.203125 25.203125 
L 14.890625 25.203125 
Q 15.484375 15.921875 20.484375 11.0625 
Q 25.484375 6.203125 34.421875 6.203125 
Q 39.59375 6.203125 44.453125 7.46875 
Q 49.3125 8.734375 54.109375 11.28125 
L 54.109375 2.78125 
Q 49.265625 0.734375 44.1875 -0.34375 
Q 39.109375 -1.421875 33.890625 -1.421875 
Q 20.796875 -1.421875 13.15625 6.1875 
Q 5.515625 13.8125 5.515625 26.8125 
Q 5.515625 40.234375 12.765625 48.109375 
Q 20.015625 56 32.328125 56 
Q 43.359375 56 49.78125 48.890625 
Q 56.203125 41.796875 56.203125 29.59375 
z
M 47.21875 32.234375 
Q 47.125 39.59375 43.09375 43.984375 
Q 39.0625 48.390625 32.421875 48.390625 
Q 24.90625 48.390625 20.390625 44.140625 
Q 15.875 39.890625 15.1875 32.171875 
z
" id="DejaVuSans-101"/>
     <path d="M 5.515625 54.6875 
L 48.1875 54.6875 
L 48.1875 46.484375 
L 14.40625 7.171875 
L 48.1875 7.171875 
L 48.1875 0 
L 4.296875 0 
L 4.296875 8.203125 
L 38.09375 47.515625 
L 5.515625 47.515625 
z
" id="DejaVuSans-122"/>
    </defs>
    <g transform="translate(252.804716 80.4)scale(0.12 -0.12)">
     <use xlink:href="#DejaVuSans-65"/>
     <use x="66.658203" xlink:href="#DejaVuSans-99"/>
     <use x="121.638672" xlink:href="#DejaVuSans-99"/>
     <use x="176.619141" xlink:href="#DejaVuSans-117"/>
     <use x="239.998047" xlink:href="#DejaVuSans-114"/>
     <use x="281.111328" xlink:href="#DejaVuSans-97"/>
     <use x="342.390625" xlink:href="#DejaVuSans-99"/>
     <use x="397.371094" xlink:href="#DejaVuSans-121"/>
     <use x="456.550781" xlink:href="#DejaVuSans-32"/>
     <use x="488.337891" xlink:href="#DejaVuSans-102"/>
     <use x="523.542969" xlink:href="#DejaVuSans-111"/>
     <use x="584.724609" xlink:href="#DejaVuSans-114"/>
     <use x="625.837891" xlink:href="#DejaVuSans-32"/>
     <use x="657.625" xlink:href="#DejaVuSans-37"/>
     <use x="752.644531" xlink:href="#DejaVuSans-32"/>
     <use x="784.431641" xlink:href="#DejaVuSans-111"/>
     <use x="845.613281" xlink:href="#DejaVuSans-102"/>
     <use x="880.818359" xlink:href="#DejaVuSans-32"/>
     <use x="912.605469" xlink:href="#DejaVuSans-109"/>
     <use x="1010.017578" xlink:href="#DejaVuSans-111"/>
     <use x="1071.199219" xlink:href="#DejaVuSans-100"/>
     <use x="1134.675781" xlink:href="#DejaVuSans-101"/>
     <use x="1196.199219" xlink:href="#DejaVuSans-108"/>
     <use x="1223.982422" xlink:href="#DejaVuSans-32"/>
     <use x="1255.769531" xlink:href="#DejaVuSans-102"/>
     <use x="1290.974609" xlink:href="#DejaVuSans-114"/>
     <use x="1329.837891" xlink:href="#DejaVuSans-111"/>
     <use x="1391.019531" xlink:href="#DejaVuSans-122"/>
     <use x="1443.509766" xlink:href="#DejaVuSans-101"/>
     <use x="1505.033203" xlink:href="#DejaVuSans-110"/>
    </g>
   </g>
   <g id="legend_1">
    <g id="patch_7">
     <path d="M 151 241.18125 
L 198.903125 241.18125 
Q 200.903125 241.18125 200.903125 239.18125 
L 200.903125 93.4 
Q 200.903125 91.4 198.903125 91.4 
L 151 91.4 
Q 149 91.4 149 93.4 
L 149 239.18125 
Q 149 241.18125 151 241.18125 
z
" style="fill:#ffffff;opacity:0.8;stroke:#cccccc;stroke-linejoin:miter;"/>
    </g>
    <g id="line2d_25">
     <path d="M 153 99.498438 
L 173 99.498438 
" style="fill:none;stroke:#e5cf52;stroke-linecap:square;stroke-width:1.5;"/>
    </g>
    <g id="line2d_26"/>
    <g id="text_18">
     <!-- 0.1 -->
     <g transform="translate(181 102.998438)scale(0.1 -0.1)">
      <use xlink:href="#DejaVuSans-48"/>
      <use x="63.623047" xlink:href="#DejaVuSans-46"/>
      <use x="95.410156" xlink:href="#DejaVuSans-49"/>
     </g>
    </g>
    <g id="line2d_27">
     <path d="M 153 114.176563 
L 173 114.176563 
" style="fill:none;stroke:#c8b866;stroke-linecap:square;stroke-width:1.5;"/>
    </g>
    <g id="line2d_28"/>
    <g id="text_19">
     <!-- 0.2 -->
     <g transform="translate(181 117.676563)scale(0.1 -0.1)">
      <use xlink:href="#DejaVuSans-48"/>
      <use x="63.623047" xlink:href="#DejaVuSans-46"/>
      <use x="95.410156" xlink:href="#DejaVuSans-50"/>
     </g>
    </g>
    <g id="line2d_29">
     <path d="M 153 128.854688 
L 173 128.854688 
" style="fill:none;stroke:#aea371;stroke-linecap:square;stroke-width:1.5;"/>
    </g>
    <g id="line2d_30"/>
    <g id="text_20">
     <!-- 0.3 -->
     <g transform="translate(181 132.354688)scale(0.1 -0.1)">
      <use xlink:href="#DejaVuSans-48"/>
      <use x="63.623047" xlink:href="#DejaVuSans-46"/>
      <use x="95.410156" xlink:href="#DejaVuSans-51"/>
     </g>
    </g>
    <g id="line2d_31">
     <path d="M 153 143.532813 
L 173 143.532813 
" style="fill:none;stroke:#948e77;stroke-linecap:square;stroke-width:1.5;"/>
    </g>
    <g id="line2d_32"/>
    <g id="text_21">
     <!-- 0.4 -->
     <g transform="translate(181 147.032813)scale(0.1 -0.1)">
      <use xlink:href="#DejaVuSans-48"/>
      <use x="63.623047" xlink:href="#DejaVuSans-46"/>
      <use x="95.410156" xlink:href="#DejaVuSans-52"/>
     </g>
    </g>
    <g id="line2d_33">
     <path d="M 153 158.210938 
L 173 158.210938 
" style="fill:none;stroke:#7c7b78;stroke-linecap:square;stroke-width:1.5;"/>
    </g>
    <g id="line2d_34"/>
    <g id="text_22">
     <!-- 0.5 -->
     <g transform="translate(181 161.710938)scale(0.1 -0.1)">
      <use xlink:href="#DejaVuSans-48"/>
      <use x="63.623047" xlink:href="#DejaVuSans-46"/>
      <use x="95.410156" xlink:href="#DejaVuSans-53"/>
     </g>
    </g>
    <g id="line2d_35">
     <path d="M 153 172.889063 
L 173 172.889063 
" style="fill:none;stroke:#666970;stroke-linecap:square;stroke-width:1.5;"/>
    </g>
    <g id="line2d_36"/>
    <g id="text_23">
     <!-- 0.6 -->
     <g transform="translate(181 176.389063)scale(0.1 -0.1)">
      <use xlink:href="#DejaVuSans-48"/>
      <use x="63.623047" xlink:href="#DejaVuSans-46"/>
      <use x="95.410156" xlink:href="#DejaVuSans-54"/>
     </g>
    </g>
    <g id="line2d_37">
     <path d="M 153 187.567188 
L 173 187.567188 
" style="fill:none;stroke:#4f576c;stroke-linecap:square;stroke-width:1.5;"/>
    </g>
    <g id="line2d_38"/>
    <g id="text_24">
     <!-- 0.7 -->
     <g transform="translate(181 191.067188)scale(0.1 -0.1)">
      <use xlink:href="#DejaVuSans-48"/>
      <use x="63.623047" xlink:href="#DejaVuSans-46"/>
      <use x="95.410156" xlink:href="#DejaVuSans-55"/>
     </g>
    </g>
    <g id="line2d_39">
     <path d="M 153 202.245313 
L 173 202.245313 
" style="fill:none;stroke:#35456c;stroke-linecap:square;stroke-width:1.5;"/>
    </g>
    <g id="line2d_40"/>
    <g id="text_25">
     <!-- 0.8 -->
     <g transform="translate(181 205.745313)scale(0.1 -0.1)">
      <use xlink:href="#DejaVuSans-48"/>
      <use x="63.623047" xlink:href="#DejaVuSans-46"/>
      <use x="95.410156" xlink:href="#DejaVuSans-56"/>
     </g>
    </g>
    <g id="line2d_41">
     <path d="M 153 216.923438 
L 173 216.923438 
" style="fill:none;stroke:#083370;stroke-linecap:square;stroke-width:1.5;"/>
    </g>
    <g id="line2d_42"/>
    <g id="text_26">
     <!-- 0.9 -->
     <defs>
      <path d="M 10.984375 1.515625 
L 10.984375 10.5 
Q 14.703125 8.734375 18.5 7.8125 
Q 22.3125 6.890625 25.984375 6.890625 
Q 35.75 6.890625 40.890625 13.453125 
Q 46.046875 20.015625 46.78125 33.40625 
Q 43.953125 29.203125 39.59375 26.953125 
Q 35.25 24.703125 29.984375 24.703125 
Q 19.046875 24.703125 12.671875 31.3125 
Q 6.296875 37.9375 6.296875 49.421875 
Q 6.296875 60.640625 12.9375 67.421875 
Q 19.578125 74.21875 30.609375 74.21875 
Q 43.265625 74.21875 49.921875 64.515625 
Q 56.59375 54.828125 56.59375 36.375 
Q 56.59375 19.140625 48.40625 8.859375 
Q 40.234375 -1.421875 26.421875 -1.421875 
Q 22.703125 -1.421875 18.890625 -0.6875 
Q 15.09375 0.046875 10.984375 1.515625 
z
M 30.609375 32.421875 
Q 37.25 32.421875 41.125 36.953125 
Q 45.015625 41.5 45.015625 49.421875 
Q 45.015625 57.28125 41.125 61.84375 
Q 37.25 66.40625 30.609375 66.40625 
Q 23.96875 66.40625 20.09375 61.84375 
Q 16.21875 57.28125 16.21875 49.421875 
Q 16.21875 41.5 20.09375 36.953125 
Q 23.96875 32.421875 30.609375 32.421875 
z
" id="DejaVuSans-57"/>
     </defs>
     <g transform="translate(181 220.423438)scale(0.1 -0.1)">
      <use xlink:href="#DejaVuSans-48"/>
      <use x="63.623047" xlink:href="#DejaVuSans-46"/>
      <use x="95.410156" xlink:href="#DejaVuSans-57"/>
     </g>
    </g>
    <g id="line2d_43">
     <path d="M 153 231.601562 
L 173 231.601562 
" style="fill:none;stroke:#00224e;stroke-linecap:square;stroke-width:1.5;"/>
    </g>
    <g id="line2d_44"/>
    <g id="text_27">
     <!-- 1.0 -->
     <g transform="translate(181 235.101562)scale(0.1 -0.1)">
      <use xlink:href="#DejaVuSans-49"/>
      <use x="63.623047" xlink:href="#DejaVuSans-46"/>
      <use x="95.410156" xlink:href="#DejaVuSans-48"/>
     </g>
    </g>
   </g>
  </g>
  <g id="axes_2">
   <g id="patch_8">
    <path d="M 630.981818 630 
L 1036.8 630 
L 1036.8 86.4 
L 630.981818 86.4 
z
" style="fill:#ffffff;"/>
   </g>
   <g id="matplotlib.axis_3">
    <g id="xtick_7">
     <g id="line2d_45">
      <g>
       <use style="stroke:#000000;stroke-width:0.8;" x="641.899005" xlink:href="#mbffd8df4ff" y="630"/>
      </g>
     </g>
     <g id="text_28">
      <!-- 0 -->
      <g transform="translate(638.717755 644.598438)scale(0.1 -0.1)">
       <use xlink:href="#DejaVuSans-48"/>
      </g>
     </g>
    </g>
    <g id="xtick_8">
     <g id="line2d_46">
      <g>
       <use style="stroke:#000000;stroke-width:0.8;" x="717.189948" xlink:href="#mbffd8df4ff" y="630"/>
      </g>
     </g>
     <g id="text_29">
      <!-- 10 -->
      <g transform="translate(710.827448 644.598438)scale(0.1 -0.1)">
       <use xlink:href="#DejaVuSans-49"/>
       <use x="63.623047" xlink:href="#DejaVuSans-48"/>
      </g>
     </g>
    </g>
    <g id="xtick_9">
     <g id="line2d_47">
      <g>
       <use style="stroke:#000000;stroke-width:0.8;" x="792.480891" xlink:href="#mbffd8df4ff" y="630"/>
      </g>
     </g>
     <g id="text_30">
      <!-- 20 -->
      <g transform="translate(786.118391 644.598438)scale(0.1 -0.1)">
       <use xlink:href="#DejaVuSans-50"/>
       <use x="63.623047" xlink:href="#DejaVuSans-48"/>
      </g>
     </g>
    </g>
    <g id="xtick_10">
     <g id="line2d_48">
      <g>
       <use style="stroke:#000000;stroke-width:0.8;" x="867.771833" xlink:href="#mbffd8df4ff" y="630"/>
      </g>
     </g>
     <g id="text_31">
      <!-- 30 -->
      <g transform="translate(861.409333 644.598438)scale(0.1 -0.1)">
       <use xlink:href="#DejaVuSans-51"/>
       <use x="63.623047" xlink:href="#DejaVuSans-48"/>
      </g>
     </g>
    </g>
    <g id="xtick_11">
     <g id="line2d_49">
      <g>
       <use style="stroke:#000000;stroke-width:0.8;" x="943.062776" xlink:href="#mbffd8df4ff" y="630"/>
      </g>
     </g>
     <g id="text_32">
      <!-- 40 -->
      <g transform="translate(936.700276 644.598438)scale(0.1 -0.1)">
       <use xlink:href="#DejaVuSans-52"/>
       <use x="63.623047" xlink:href="#DejaVuSans-48"/>
      </g>
     </g>
    </g>
    <g id="xtick_12">
     <g id="line2d_50">
      <g>
       <use style="stroke:#000000;stroke-width:0.8;" x="1018.353719" xlink:href="#mbffd8df4ff" y="630"/>
      </g>
     </g>
     <g id="text_33">
      <!-- 50 -->
      <g transform="translate(1011.991219 644.598438)scale(0.1 -0.1)">
       <use xlink:href="#DejaVuSans-53"/>
       <use x="63.623047" xlink:href="#DejaVuSans-48"/>
      </g>
     </g>
    </g>
    <g id="text_34">
     <!-- Epochs -->
     <g transform="translate(815.975284 658.276562)scale(0.1 -0.1)">
      <use xlink:href="#DejaVuSans-69"/>
      <use x="63.183594" xlink:href="#DejaVuSans-112"/>
      <use x="126.660156" xlink:href="#DejaVuSans-111"/>
      <use x="187.841797" xlink:href="#DejaVuSans-99"/>
      <use x="242.822266" xlink:href="#DejaVuSans-104"/>
      <use x="306.201172" xlink:href="#DejaVuSans-115"/>
     </g>
    </g>
   </g>
   <g id="matplotlib.axis_4">
    <g id="ytick_9">
     <g id="line2d_51">
      <g>
       <use style="stroke:#000000;stroke-width:0.8;" x="630.981818" xlink:href="#m91202cf79f" y="609.845292"/>
      </g>
     </g>
     <g id="text_35">
      <!-- 0.0 -->
      <g transform="translate(608.078693 613.644511)scale(0.1 -0.1)">
       <use xlink:href="#DejaVuSans-48"/>
       <use x="63.623047" xlink:href="#DejaVuSans-46"/>
       <use x="95.410156" xlink:href="#DejaVuSans-48"/>
      </g>
     </g>
    </g>
    <g id="ytick_10">
     <g id="line2d_52">
      <g>
       <use style="stroke:#000000;stroke-width:0.8;" x="630.981818" xlink:href="#m91202cf79f" y="490.119726"/>
      </g>
     </g>
     <g id="text_36">
      <!-- 0.2 -->
      <g transform="translate(608.078693 493.918945)scale(0.1 -0.1)">
       <use xlink:href="#DejaVuSans-48"/>
       <use x="63.623047" xlink:href="#DejaVuSans-46"/>
       <use x="95.410156" xlink:href="#DejaVuSans-50"/>
      </g>
     </g>
    </g>
    <g id="ytick_11">
     <g id="line2d_53">
      <g>
       <use style="stroke:#000000;stroke-width:0.8;" x="630.981818" xlink:href="#m91202cf79f" y="370.39416"/>
      </g>
     </g>
     <g id="text_37">
      <!-- 0.4 -->
      <g transform="translate(608.078693 374.193379)scale(0.1 -0.1)">
       <use xlink:href="#DejaVuSans-48"/>
       <use x="63.623047" xlink:href="#DejaVuSans-46"/>
       <use x="95.410156" xlink:href="#DejaVuSans-52"/>
      </g>
     </g>
    </g>
    <g id="ytick_12">
     <g id="line2d_54">
      <g>
       <use style="stroke:#000000;stroke-width:0.8;" x="630.981818" xlink:href="#m91202cf79f" y="250.668594"/>
      </g>
     </g>
     <g id="text_38">
      <!-- 0.6 -->
      <g transform="translate(608.078693 254.467813)scale(0.1 -0.1)">
       <use xlink:href="#DejaVuSans-48"/>
       <use x="63.623047" xlink:href="#DejaVuSans-46"/>
       <use x="95.410156" xlink:href="#DejaVuSans-54"/>
      </g>
     </g>
    </g>
    <g id="ytick_13">
     <g id="line2d_55">
      <g>
       <use style="stroke:#000000;stroke-width:0.8;" x="630.981818" xlink:href="#m91202cf79f" y="130.943028"/>
      </g>
     </g>
     <g id="text_39">
      <!-- 0.8 -->
      <g transform="translate(608.078693 134.742247)scale(0.1 -0.1)">
       <use xlink:href="#DejaVuSans-48"/>
       <use x="63.623047" xlink:href="#DejaVuSans-46"/>
       <use x="95.410156" xlink:href="#DejaVuSans-56"/>
      </g>
     </g>
    </g>
    <g id="text_40">
     <!-- Validation F1 score -->
     <defs>
      <path d="M 9.8125 72.90625 
L 51.703125 72.90625 
L 51.703125 64.59375 
L 19.671875 64.59375 
L 19.671875 43.109375 
L 48.578125 43.109375 
L 48.578125 34.8125 
L 19.671875 34.8125 
L 19.671875 0 
L 9.8125 0 
z
" id="DejaVuSans-70"/>
     </defs>
     <g transform="translate(601.999006 405.558594)rotate(-90)scale(0.1 -0.1)">
      <use xlink:href="#DejaVuSans-86"/>
      <use x="60.658203" xlink:href="#DejaVuSans-97"/>
      <use x="121.9375" xlink:href="#DejaVuSans-108"/>
      <use x="149.720703" xlink:href="#DejaVuSans-105"/>
      <use x="177.503906" xlink:href="#DejaVuSans-100"/>
      <use x="240.980469" xlink:href="#DejaVuSans-97"/>
      <use x="302.259766" xlink:href="#DejaVuSans-116"/>
      <use x="341.46875" xlink:href="#DejaVuSans-105"/>
      <use x="369.251953" xlink:href="#DejaVuSans-111"/>
      <use x="430.433594" xlink:href="#DejaVuSans-110"/>
      <use x="493.8125" xlink:href="#DejaVuSans-32"/>
      <use x="525.599609" xlink:href="#DejaVuSans-70"/>
      <use x="583.119141" xlink:href="#DejaVuSans-49"/>
      <use x="646.742188" xlink:href="#DejaVuSans-32"/>
      <use x="678.529297" xlink:href="#DejaVuSans-115"/>
      <use x="730.628906" xlink:href="#DejaVuSans-99"/>
      <use x="785.609375" xlink:href="#DejaVuSans-111"/>
      <use x="846.791016" xlink:href="#DejaVuSans-114"/>
      <use x="885.654297" xlink:href="#DejaVuSans-101"/>
     </g>
    </g>
   </g>
   <g id="line2d_56">
    <path clip-path="url(#p9c55e23126)" d="M 649.428099 595.997713 
L 656.957193 547.683749 
L 664.486288 504.154706 
L 672.015382 464.936695 
L 679.544476 429.60276 
L 687.073571 397.76823 
L 694.602665 369.08653 
L 702.131759 343.24541 
L 709.660853 319.963545 
L 717.189948 298.98747 
L 724.719042 280.088826 
L 732.248136 263.061866 
L 739.777231 247.721224 
L 747.306325 233.899889 
L 754.835419 221.447393 
L 762.364513 210.228167 
L 769.893608 200.120072 
L 777.422702 191.013063 
L 784.951796 182.807995 
L 792.480891 175.415541 
L 800.009985 168.755221 
L 807.539079 162.754527 
L 815.068173 157.348129 
L 822.597268 152.477171 
L 830.126362 148.088623 
L 837.655456 144.134708 
L 845.184551 140.572381 
L 852.713645 137.362861 
L 860.242739 134.471205 
L 867.771833 131.865933 
L 875.300928 129.518682 
L 882.830022 127.403898 
L 890.359116 125.498558 
L 897.88821 123.78192 
L 905.417305 122.235294 
L 912.946399 120.841843 
L 920.475493 119.586397 
L 928.004588 118.455287 
L 935.533682 117.436201 
L 943.062776 116.518043 
L 950.59187 115.690817 
L 958.120965 114.945518 
L 965.650059 114.274033 
L 973.179153 113.669049 
L 980.708248 113.123983 
L 988.237342 112.632898 
L 995.766436 112.19045 
L 1003.29553 111.791821 
L 1010.824625 111.432671 
L 1018.353719 111.109091 
" style="fill:none;stroke:#e5cf52;stroke-linecap:square;stroke-width:1.5;"/>
   </g>
   <g id="line2d_57">
    <path clip-path="url(#p9c55e23126)" d="M 649.428099 605.290909 
L 656.957193 562.142416 
L 664.486288 522.863564 
L 672.015382 487.107314 
L 679.544476 454.557753 
L 687.073571 424.9273 
L 694.602665 397.954163 
L 702.131759 373.400028 
L 709.660853 351.047956 
L 717.189948 330.70046 
L 724.719042 312.177767 
L 732.248136 295.316225 
L 739.777231 279.966858 
L 747.306325 265.994052 
L 754.835419 253.274354 
L 762.364513 241.695383 
L 769.893608 231.154836 
L 777.422702 221.559586 
L 784.951796 212.824857 
L 792.480891 204.873474 
L 800.009985 197.635187 
L 807.539079 191.046044 
L 815.068173 185.047828 
L 822.597268 179.587543 
L 830.126362 174.616947 
L 837.655456 170.092123 
L 845.184551 165.973095 
L 852.713645 162.223469 
L 860.242739 158.810116 
L 867.771833 155.70288 
L 875.300928 152.874306 
L 882.830022 150.299405 
L 890.359116 147.955425 
L 897.88821 145.821658 
L 905.417305 143.879252 
L 912.946399 142.111044 
L 920.475493 140.501413 
L 928.004588 139.036136 
L 935.533682 137.702268 
L 943.062776 136.488024 
L 950.59187 135.382676 
L 958.120965 134.376457 
L 965.650059 133.460478 
L 973.179153 132.626646 
L 980.708248 131.867594 
L 988.237342 131.176615 
L 995.766436 130.547604 
L 1003.29553 129.975004 
L 1010.824625 129.453756 
L 1018.353719 128.979254 
" style="fill:none;stroke:#c8b866;stroke-linecap:square;stroke-width:1.5;"/>
   </g>
   <g id="line2d_58">
    <path clip-path="url(#p9c55e23126)" d="M 649.428099 597.116665 
L 656.957193 571.082981 
L 664.486288 546.370875 
L 672.015382 522.91326 
L 679.544476 500.646453 
L 687.073571 479.510002 
L 694.602665 459.446526 
L 702.131759 440.401557 
L 709.660853 422.323391 
L 717.189948 405.162949 
L 724.719042 388.873643 
L 732.248136 373.411251 
L 739.777231 358.733795 
L 747.306325 344.801428 
L 754.835419 331.576327 
L 762.364513 319.022588 
L 769.893608 307.10613 
L 777.422702 295.794601 
L 784.951796 285.057293 
L 792.480891 274.865056 
L 800.009985 265.19022 
L 807.539079 256.006519 
L 815.068173 247.289021 
L 822.597268 239.014061 
L 830.126362 231.159172 
L 837.655456 223.703031 
L 845.184551 216.625394 
L 852.713645 209.907049 
L 860.242739 203.529754 
L 867.771833 197.476199 
L 875.300928 191.729947 
L 882.830022 186.275399 
L 890.359116 181.097747 
L 897.88821 176.182934 
L 905.417305 171.517618 
L 912.946399 167.089133 
L 920.475493 162.885456 
L 928.004588 158.895176 
L 935.533682 155.107459 
L 943.062776 151.512023 
L 950.59187 148.099106 
L 958.120965 144.859444 
L 965.650059 141.78424 
L 973.179153 138.865146 
L 980.708248 136.094238 
L 988.237342 133.463993 
L 995.766436 130.96727 
L 1003.29553 128.597292 
L 1010.824625 126.347623 
L 1018.353719 124.212157 
" style="fill:none;stroke:#aea371;stroke-linecap:square;stroke-width:1.5;"/>
   </g>
   <g id="line2d_59">
    <path clip-path="url(#p9c55e23126)" d="M 649.428099 596.854572 
L 656.957193 583.325668 
L 664.486288 570.084913 
L 672.015382 557.12617 
L 679.544476 544.443433 
L 687.073571 532.030824 
L 694.602665 519.882588 
L 702.131759 507.993095 
L 709.660853 496.356834 
L 717.189948 484.968412 
L 724.719042 473.822549 
L 732.248136 462.91408 
L 739.777231 452.237949 
L 747.306325 441.789206 
L 754.835419 431.56301 
L 762.364513 421.554619 
L 769.893608 411.759395 
L 777.422702 402.172797 
L 784.951796 392.790383 
L 792.480891 383.607803 
L 800.009985 374.620801 
L 807.539079 365.825211 
L 815.068173 357.216957 
L 822.597268 348.792048 
L 830.126362 340.54658 
L 837.655456 332.476731 
L 845.184551 324.57876 
L 852.713645 316.849006 
L 860.242739 309.283887 
L 867.771833 301.879896 
L 875.300928 294.633601 
L 882.830022 287.541644 
L 890.359116 280.600736 
L 897.88821 273.807662 
L 905.417305 267.159273 
L 912.946399 260.652486 
L 920.475493 254.284285 
L 928.004588 248.05172 
L 935.533682 241.951902 
L 943.062776 235.982002 
L 950.59187 230.139253 
L 958.120965 224.420949 
L 965.650059 218.824437 
L 973.179153 213.347125 
L 980.708248 207.986473 
L 988.237342 202.739996 
L 995.766436 197.605263 
L 1003.29553 192.579894 
L 1010.824625 187.661559 
L 1018.353719 182.847978 
" style="fill:none;stroke:#948e77;stroke-linecap:square;stroke-width:1.5;"/>
   </g>
   <g id="line2d_60">
    <path clip-path="url(#p9c55e23126)" d="M 649.428099 588.070813 
L 656.957193 575.486636 
L 664.486288 563.209107 
L 672.015382 551.230756 
L 679.544476 539.54429 
L 687.073571 528.142598 
L 694.602665 517.01874 
L 702.131759 506.165945 
L 709.660853 495.57761 
L 717.189948 485.247289 
L 724.719042 475.168696 
L 732.248136 465.335696 
L 739.777231 455.742304 
L 747.306325 446.382682 
L 754.835419 437.251134 
L 762.364513 428.342101 
L 769.893608 419.650162 
L 777.422702 411.170026 
L 784.951796 402.896533 
L 792.480891 394.824647 
L 800.009985 386.949455 
L 807.539079 379.266163 
L 815.068173 371.770097 
L 822.597268 364.456694 
L 830.126362 357.321502 
L 837.655456 350.360179 
L 845.184551 343.568488 
L 852.713645 336.942296 
L 860.242739 330.477569 
L 867.771833 324.170374 
L 875.300928 318.016871 
L 882.830022 312.013316 
L 890.359116 306.156054 
L 897.88821 300.441521 
L 905.417305 294.866238 
L 912.946399 289.426813 
L 920.475493 284.119934 
L 928.004588 278.942373 
L 935.533682 273.890977 
L 943.062776 268.962673 
L 950.59187 264.154461 
L 958.120965 259.463414 
L 965.650059 254.886678 
L 973.179153 250.421467 
L 980.708248 246.065063 
L 988.237342 241.814815 
L 995.766436 237.668137 
L 1003.29553 233.622503 
L 1010.824625 229.675454 
L 1018.353719 225.824585 
" style="fill:none;stroke:#7c7b78;stroke-linecap:square;stroke-width:1.5;"/>
   </g>
   <g id="line2d_61">
    <path clip-path="url(#p9c55e23126)" d="M 649.428099 574.207847 
L 656.957193 564.436361 
L 664.486288 554.844338 
L 672.015382 545.428484 
L 679.544476 536.185561 
L 687.073571 527.112395 
L 694.602665 518.205867 
L 702.131759 509.462918 
L 709.660853 500.880542 
L 717.189948 492.45579 
L 724.719042 484.185769 
L 732.248136 476.067635 
L 739.777231 468.098599 
L 747.306325 460.275923 
L 754.835419 452.596919 
L 762.364513 445.058949 
L 769.893608 437.659421 
L 777.422702 430.395793 
L 784.951796 423.26557 
L 792.480891 416.266301 
L 800.009985 409.395582 
L 807.539079 402.65105 
L 815.068173 396.030389 
L 822.597268 389.531323 
L 830.126362 383.15162 
L 837.655456 376.889087 
L 845.184551 370.741573 
L 852.713645 364.706963 
L 860.242739 358.783186 
L 867.771833 352.968206 
L 875.300928 347.260024 
L 882.830022 341.656679 
L 890.359116 336.156245 
L 897.88821 330.756833 
L 905.417305 325.456586 
L 912.946399 320.253685 
L 920.475493 315.14634 
L 928.004588 310.132797 
L 935.533682 305.211334 
L 943.062776 300.380258 
L 950.59187 295.63791 
L 958.120965 290.982661 
L 965.650059 286.41291 
L 973.179153 281.927087 
L 980.708248 277.523652 
L 988.237342 273.20109 
L 995.766436 268.957917 
L 1003.29553 264.792674 
L 1010.824625 260.703931 
L 1018.353719 256.690282 
" style="fill:none;stroke:#666970;stroke-linecap:square;stroke-width:1.5;"/>
   </g>
   <g id="line2d_62">
    <path clip-path="url(#p9c55e23126)" d="M 649.428099 602.248413 
L 656.957193 592.135309 
L 664.486288 582.221038 
L 672.015382 572.501688 
L 679.544476 562.973429 
L 687.073571 553.632502 
L 694.602665 544.475225 
L 702.131759 535.497987 
L 709.660853 526.697249 
L 717.189948 518.06954 
L 724.719042 509.611458 
L 732.248136 501.319669 
L 739.777231 493.190903 
L 747.306325 485.221954 
L 754.835419 477.409681 
L 762.364513 469.751004 
L 769.893608 462.242902 
L 777.422702 454.882415 
L 784.951796 447.666641 
L 792.480891 440.592735 
L 800.009985 433.657907 
L 807.539079 426.859423 
L 815.068173 420.194602 
L 822.597268 413.660817 
L 830.126362 407.255492 
L 837.655456 400.9761 
L 845.184551 394.820165 
L 852.713645 388.785261 
L 860.242739 382.869008 
L 867.771833 377.069073 
L 875.300928 371.383169 
L 882.830022 365.809055 
L 890.359116 360.344532 
L 897.88821 354.987445 
L 905.417305 349.735683 
L 912.946399 344.587175 
L 920.475493 339.53989 
L 928.004588 334.591839 
L 935.533682 329.74107 
L 943.062776 324.985672 
L 950.59187 320.323768 
L 958.120965 315.75352 
L 965.650059 311.273127 
L 973.179153 306.880823 
L 980.708248 302.574874 
L 988.237342 298.353583 
L 995.766436 294.215287 
L 1003.29553 290.158352 
L 1010.824625 286.18118 
L 1018.353719 282.282202 
" style="fill:none;stroke:#4f576c;stroke-linecap:square;stroke-width:1.5;"/>
   </g>
   <g id="line2d_63">
    <path clip-path="url(#p9c55e23126)" d="M 649.428099 572.771849 
L 656.957193 570.137094 
L 664.486288 567.502442 
L 672.015382 564.867894 
L 679.544476 562.233449 
L 687.073571 559.599108 
L 694.602665 556.964871 
L 702.131759 554.330737 
L 709.660853 551.696706 
L 717.189948 549.062779 
L 724.719042 546.428956 
L 732.248136 543.795236 
L 739.777231 541.16162 
L 747.306325 538.528107 
L 754.835419 535.894697 
L 762.364513 533.261392 
L 769.893608 530.628189 
L 777.422702 527.99509 
L 784.951796 525.362095 
L 792.480891 522.729203 
L 800.009985 520.096415 
L 807.539079 517.46373 
L 815.068173 514.831149 
L 822.597268 512.198671 
L 830.126362 509.566296 
L 837.655456 506.934025 
L 845.184551 504.301858 
L 852.713645 501.669794 
L 860.242739 499.037833 
L 867.771833 496.405976 
L 875.300928 493.774223 
L 882.830022 491.142572 
L 890.359116 488.511025 
L 897.88821 485.879582 
L 905.417305 483.248242 
L 912.946399 480.617006 
L 920.475493 477.985873 
L 928.004588 475.354843 
L 935.533682 472.723917 
L 943.062776 470.093094 
L 950.59187 467.462374 
L 958.120965 464.831758 
L 965.650059 462.201246 
L 973.179153 459.570836 
L 980.708248 456.940531 
L 988.237342 454.310328 
L 995.766436 451.680229 
L 1003.29553 449.050233 
L 1010.824625 446.420341 
L 1018.353719 443.790552 
" style="fill:none;stroke:#35456c;stroke-linecap:square;stroke-width:1.5;"/>
   </g>
   <g id="line2d_64">
    <path clip-path="url(#p9c55e23126)" d="M 649.428099 598.863395 
L 656.957193 592.586246 
L 664.486288 586.560875 
L 672.015382 580.777184 
L 679.544476 575.225478 
L 687.073571 569.896452 
L 694.602665 564.781175 
L 702.131759 559.871073 
L 709.660853 555.157916 
L 717.189948 550.633806 
L 724.719042 546.291159 
L 732.248136 542.122697 
L 739.777231 538.121432 
L 747.306325 534.28066 
L 754.835419 530.593942 
L 762.364513 527.055099 
L 769.893608 523.6582 
L 777.422702 520.397552 
L 784.951796 517.267689 
L 792.480891 514.263366 
L 800.009985 511.379547 
L 807.539079 508.611399 
L 815.068173 505.954282 
L 822.597268 503.403743 
L 830.126362 500.955507 
L 837.655456 498.60547 
L 845.184551 496.349693 
L 852.713645 494.184397 
L 860.242739 492.105951 
L 867.771833 490.110872 
L 875.300928 488.195816 
L 882.830022 486.357574 
L 890.359116 484.593064 
L 897.88821 482.899329 
L 905.417305 481.27353 
L 912.946399 479.712942 
L 920.475493 478.21495 
L 928.004588 476.777043 
L 935.533682 475.396811 
L 943.062776 474.07194 
L 950.59187 472.80021 
L 958.120965 471.57949 
L 965.650059 470.407733 
L 973.179153 469.282975 
L 980.708248 468.203332 
L 988.237342 467.166994 
L 995.766436 466.172223 
L 1003.29553 465.217353 
L 1010.824625 464.300783 
L 1018.353719 463.420977 
" style="fill:none;stroke:#083370;stroke-linecap:square;stroke-width:1.5;"/>
   </g>
   <g id="line2d_65">
    <path clip-path="url(#p9c55e23126)" d="M 649.428099 599.034139 
L 656.957193 599.034139 
L 664.486288 599.034139 
L 672.015382 599.034139 
L 679.544476 599.034139 
L 687.073571 599.034139 
L 694.602665 599.034139 
L 702.131759 599.034139 
L 709.660853 599.034139 
L 717.189948 599.034139 
L 724.719042 599.034139 
L 732.248136 599.034139 
L 739.777231 599.034139 
L 747.306325 599.034139 
L 754.835419 599.034139 
L 762.364513 599.034139 
L 769.893608 599.034139 
L 777.422702 599.034139 
L 784.951796 599.034139 
L 792.480891 599.034139 
L 800.009985 599.034139 
L 807.539079 599.034139 
L 815.068173 599.034139 
L 822.597268 599.034139 
L 830.126362 599.034139 
L 837.655456 599.034139 
L 845.184551 599.034139 
L 852.713645 599.034139 
L 860.242739 599.034139 
L 867.771833 599.034139 
L 875.300928 599.034139 
L 882.830022 599.034139 
L 890.359116 599.034139 
L 897.88821 599.034139 
L 905.417305 599.034139 
L 912.946399 599.034139 
L 920.475493 599.034139 
L 928.004588 599.034139 
L 935.533682 599.034139 
L 943.062776 599.034139 
L 950.59187 599.034139 
L 958.120965 599.034139 
L 965.650059 599.034139 
L 973.179153 599.034139 
L 980.708248 599.034139 
L 988.237342 599.034139 
L 995.766436 599.034139 
L 1003.29553 599.034139 
L 1010.824625 599.034139 
L 1018.353719 599.034139 
" style="fill:none;stroke:#00224e;stroke-linecap:square;stroke-width:1.5;"/>
   </g>
   <g id="patch_9">
    <path d="M 630.981818 630 
L 630.981818 86.4 
" style="fill:none;stroke:#000000;stroke-linecap:square;stroke-linejoin:miter;stroke-width:0.8;"/>
   </g>
   <g id="patch_10">
    <path d="M 1036.8 630 
L 1036.8 86.4 
" style="fill:none;stroke:#000000;stroke-linecap:square;stroke-linejoin:miter;stroke-width:0.8;"/>
   </g>
   <g id="patch_11">
    <path d="M 630.981818 630 
L 1036.8 630 
" style="fill:none;stroke:#000000;stroke-linecap:square;stroke-linejoin:miter;stroke-width:0.8;"/>
   </g>
   <g id="patch_12">
    <path d="M 630.981818 86.4 
L 1036.8 86.4 
" style="fill:none;stroke:#000000;stroke-linecap:square;stroke-linejoin:miter;stroke-width:0.8;"/>
   </g>
   <g id="text_41">
    <!-- F1 score for % of model frozen -->
    <g transform="translate(741.885597 80.4)scale(0.12 -0.12)">
     <use xlink:href="#DejaVuSans-70"/>
     <use x="57.519531" xlink:href="#DejaVuSans-49"/>
     <use x="121.142578" xlink:href="#DejaVuSans-32"/>
     <use x="152.929688" xlink:href="#DejaVuSans-115"/>
     <use x="205.029297" xlink:href="#DejaVuSans-99"/>
     <use x="260.009766" xlink:href="#DejaVuSans-111"/>
     <use x="321.191406" xlink:href="#DejaVuSans-114"/>
     <use x="360.054688" xlink:href="#DejaVuSans-101"/>
     <use x="421.578125" xlink:href="#DejaVuSans-32"/>
     <use x="453.365234" xlink:href="#DejaVuSans-102"/>
     <use x="488.570312" xlink:href="#DejaVuSans-111"/>
     <use x="549.751953" xlink:href="#DejaVuSans-114"/>
     <use x="590.865234" xlink:href="#DejaVuSans-32"/>
     <use x="622.652344" xlink:href="#DejaVuSans-37"/>
     <use x="717.671875" xlink:href="#DejaVuSans-32"/>
     <use x="749.458984" xlink:href="#DejaVuSans-111"/>
     <use x="810.640625" xlink:href="#DejaVuSans-102"/>
     <use x="845.845703" xlink:href="#DejaVuSans-32"/>
     <use x="877.632812" xlink:href="#DejaVuSans-109"/>
     <use x="975.044922" xlink:href="#DejaVuSans-111"/>
     <use x="1036.226562" xlink:href="#DejaVuSans-100"/>
     <use x="1099.703125" xlink:href="#DejaVuSans-101"/>
     <use x="1161.226562" xlink:href="#DejaVuSans-108"/>
     <use x="1189.009766" xlink:href="#DejaVuSans-32"/>
     <use x="1220.796875" xlink:href="#DejaVuSans-102"/>
     <use x="1256.001953" xlink:href="#DejaVuSans-114"/>
     <use x="1294.865234" xlink:href="#DejaVuSans-111"/>
     <use x="1356.046875" xlink:href="#DejaVuSans-122"/>
     <use x="1408.537109" xlink:href="#DejaVuSans-101"/>
     <use x="1470.060547" xlink:href="#DejaVuSans-110"/>
    </g>
   </g>
   <g id="legend_2">
    <g id="patch_13">
     <path d="M 637.981818 241.18125 
L 685.884943 241.18125 
Q 687.884943 241.18125 687.884943 239.18125 
L 687.884943 93.4 
Q 687.884943 91.4 685.884943 91.4 
L 637.981818 91.4 
Q 635.981818 91.4 635.981818 93.4 
L 635.981818 239.18125 
Q 635.981818 241.18125 637.981818 241.18125 
z
" style="fill:#ffffff;opacity:0.8;stroke:#cccccc;stroke-linejoin:miter;"/>
    </g>
    <g id="line2d_66">
     <path d="M 639.981818 99.498438 
L 659.981818 99.498438 
" style="fill:none;stroke:#e5cf52;stroke-linecap:square;stroke-width:1.5;"/>
    </g>
    <g id="line2d_67"/>
    <g id="text_42">
     <!-- 0.1 -->
     <g transform="translate(667.981818 102.998438)scale(0.1 -0.1)">
      <use xlink:href="#DejaVuSans-48"/>
      <use x="63.623047" xlink:href="#DejaVuSans-46"/>
      <use x="95.410156" xlink:href="#DejaVuSans-49"/>
     </g>
    </g>
    <g id="line2d_68">
     <path d="M 639.981818 114.176563 
L 659.981818 114.176563 
" style="fill:none;stroke:#c8b866;stroke-linecap:square;stroke-width:1.5;"/>
    </g>
    <g id="line2d_69"/>
    <g id="text_43">
     <!-- 0.2 -->
     <g transform="translate(667.981818 117.676563)scale(0.1 -0.1)">
      <use xlink:href="#DejaVuSans-48"/>
      <use x="63.623047" xlink:href="#DejaVuSans-46"/>
      <use x="95.410156" xlink:href="#DejaVuSans-50"/>
     </g>
    </g>
    <g id="line2d_70">
     <path d="M 639.981818 128.854688 
L 659.981818 128.854688 
" style="fill:none;stroke:#aea371;stroke-linecap:square;stroke-width:1.5;"/>
    </g>
    <g id="line2d_71"/>
    <g id="text_44">
     <!-- 0.3 -->
     <g transform="translate(667.981818 132.354688)scale(0.1 -0.1)">
      <use xlink:href="#DejaVuSans-48"/>
      <use x="63.623047" xlink:href="#DejaVuSans-46"/>
      <use x="95.410156" xlink:href="#DejaVuSans-51"/>
     </g>
    </g>
    <g id="line2d_72">
     <path d="M 639.981818 143.532813 
L 659.981818 143.532813 
" style="fill:none;stroke:#948e77;stroke-linecap:square;stroke-width:1.5;"/>
    </g>
    <g id="line2d_73"/>
    <g id="text_45">
     <!-- 0.4 -->
     <g transform="translate(667.981818 147.032813)scale(0.1 -0.1)">
      <use xlink:href="#DejaVuSans-48"/>
      <use x="63.623047" xlink:href="#DejaVuSans-46"/>
      <use x="95.410156" xlink:href="#DejaVuSans-52"/>
     </g>
    </g>
    <g id="line2d_74">
     <path d="M 639.981818 158.210938 
L 659.981818 158.210938 
" style="fill:none;stroke:#7c7b78;stroke-linecap:square;stroke-width:1.5;"/>
    </g>
    <g id="line2d_75"/>
    <g id="text_46">
     <!-- 0.5 -->
     <g transform="translate(667.981818 161.710938)scale(0.1 -0.1)">
      <use xlink:href="#DejaVuSans-48"/>
      <use x="63.623047" xlink:href="#DejaVuSans-46"/>
      <use x="95.410156" xlink:href="#DejaVuSans-53"/>
     </g>
    </g>
    <g id="line2d_76">
     <path d="M 639.981818 172.889063 
L 659.981818 172.889063 
" style="fill:none;stroke:#666970;stroke-linecap:square;stroke-width:1.5;"/>
    </g>
    <g id="line2d_77"/>
    <g id="text_47">
     <!-- 0.6 -->
     <g transform="translate(667.981818 176.389063)scale(0.1 -0.1)">
      <use xlink:href="#DejaVuSans-48"/>
      <use x="63.623047" xlink:href="#DejaVuSans-46"/>
      <use x="95.410156" xlink:href="#DejaVuSans-54"/>
     </g>
    </g>
    <g id="line2d_78">
     <path d="M 639.981818 187.567188 
L 659.981818 187.567188 
" style="fill:none;stroke:#4f576c;stroke-linecap:square;stroke-width:1.5;"/>
    </g>
    <g id="line2d_79"/>
    <g id="text_48">
     <!-- 0.7 -->
     <g transform="translate(667.981818 191.067188)scale(0.1 -0.1)">
      <use xlink:href="#DejaVuSans-48"/>
      <use x="63.623047" xlink:href="#DejaVuSans-46"/>
      <use x="95.410156" xlink:href="#DejaVuSans-55"/>
     </g>
    </g>
    <g id="line2d_80">
     <path d="M 639.981818 202.245313 
L 659.981818 202.245313 
" style="fill:none;stroke:#35456c;stroke-linecap:square;stroke-width:1.5;"/>
    </g>
    <g id="line2d_81"/>
    <g id="text_49">
     <!-- 0.8 -->
     <g transform="translate(667.981818 205.745313)scale(0.1 -0.1)">
      <use xlink:href="#DejaVuSans-48"/>
      <use x="63.623047" xlink:href="#DejaVuSans-46"/>
      <use x="95.410156" xlink:href="#DejaVuSans-56"/>
     </g>
    </g>
    <g id="line2d_82">
     <path d="M 639.981818 216.923438 
L 659.981818 216.923438 
" style="fill:none;stroke:#083370;stroke-linecap:square;stroke-width:1.5;"/>
    </g>
    <g id="line2d_83"/>
    <g id="text_50">
     <!-- 0.9 -->
     <g transform="translate(667.981818 220.423438)scale(0.1 -0.1)">
      <use xlink:href="#DejaVuSans-48"/>
      <use x="63.623047" xlink:href="#DejaVuSans-46"/>
      <use x="95.410156" xlink:href="#DejaVuSans-57"/>
     </g>
    </g>
    <g id="line2d_84">
     <path d="M 639.981818 231.601562 
L 659.981818 231.601562 
" style="fill:none;stroke:#00224e;stroke-linecap:square;stroke-width:1.5;"/>
    </g>
    <g id="line2d_85"/>
    <g id="text_51">
     <!-- 1.0 -->
     <g transform="translate(667.981818 235.101562)scale(0.1 -0.1)">
      <use xlink:href="#DejaVuSans-49"/>
      <use x="63.623047" xlink:href="#DejaVuSans-46"/>
      <use x="95.410156" xlink:href="#DejaVuSans-48"/>
     </g>
    </g>
   </g>
  </g>
 </g>
 <defs>
  <clipPath id="p098d0844ea">
   <rect height="543.6" width="405.818182" x="144" y="86.4"/>
  </clipPath>
  <clipPath id="p9c55e23126">
   <rect height="543.6" width="405.818182" x="630.981818" y="86.4"/>
  </clipPath>
 </defs>
</svg>
